<svg width="1020" height="246" viewBox="0 0 1020 246" fill="none" xmlns="http://www.w3.org/2000/svg">
<path d="M637.972 97.8964C637.972 124.559 654.981 141.414 678.885 141.414C699.725 141.414 713.362 129.769 717.653 113.066H702.636C699.571 123.639 691.297 129.615 678.885 129.615C663.562 129.615 652.223 118.736 652.223 97.8964C652.223 77.3632 663.562 66.4837 678.885 66.4837C691.297 66.4837 699.725 72.9195 702.636 83.0328H717.653C713.362 65.4111 699.725 54.6848 678.885 54.6848C654.981 54.6848 637.972 71.5404 637.972 97.8964Z" fill="#323233"/>
<path d="M734.113 97.7431C734.113 123.793 751.428 141.414 773.8 141.414C789.277 141.414 800.156 133.446 805.213 124.406V140.035H819.31V56.0639H805.213V71.3872C800.31 62.6529 789.583 54.6848 773.954 54.6848C751.428 54.6848 734.113 71.5404 734.113 97.7431ZM805.213 97.8964C805.213 117.663 792.035 129.156 776.712 129.156C761.389 129.156 748.364 117.51 748.364 97.7431C748.364 77.9762 761.389 66.7902 776.712 66.7902C792.035 66.7902 805.213 78.4359 805.213 97.8964Z" fill="#323233"/>
<path d="M859.883 94.372C859.883 74.9115 869.997 68.9355 883.328 68.9355H887.005V54.5316C873.674 54.5316 864.634 60.3544 859.883 69.7016V56.0639H845.939V140.035H859.883V94.372Z" fill="#323233"/>
<path d="M941.87 66.4837C956.274 66.4837 968.532 75.5244 968.379 91.9203H915.361C916.893 75.5244 928.232 66.4837 941.87 66.4837ZM981.097 114.139H966.081C963.016 123.18 955.048 129.615 942.483 129.615C928.232 129.615 916.28 120.268 915.207 103.259H982.323C982.63 100.348 982.783 97.8964 982.783 94.8317C982.783 71.8469 966.847 54.6848 942.483 54.6848C917.966 54.6848 900.957 71.3872 900.957 97.8964C900.957 124.559 918.578 141.414 942.483 141.414C963.322 141.414 976.807 129.462 981.097 114.139Z" fill="#323233"/>
<path fill-rule="evenodd" clip-rule="evenodd" d="M1004.05 27.7963C995.878 27.7963 989.253 34.4211 989.253 42.5932C989.253 50.7654 995.878 57.3902 1004.05 57.3902C1012.22 57.3902 1018.85 50.7654 1018.85 42.5932C1018.85 34.4211 1012.22 27.7963 1004.05 27.7963ZM988.1 42.5932C988.1 33.7843 995.241 26.6433 1004.05 26.6433C1012.86 26.6433 1020 33.7843 1020 42.5932C1020 51.4022 1012.86 58.5432 1004.05 58.5432C995.241 58.5432 988.1 51.4022 988.1 42.5932Z" fill="#323233"/>
<path d="M1007.65 39.2261C1007.65 41.1862 1006.47 42.616 1003.84 42.616H1000.59V35.9055H1003.82C1006.54 35.9055 1007.65 37.1968 1007.65 39.2261ZM998.977 34.5449V50.664H1000.59V43.9304H1003.57L1007.56 50.664H1009.49L1005.34 43.8151C1008.06 43.3078 1009.31 41.4399 1009.31 39.2261C1009.31 36.5742 1007.56 34.5449 1003.82 34.5449H998.977Z" fill="#323233"/>
<g opacity="0.8">
<mask id="path-4-outside-1_83_76" maskUnits="userSpaceOnUse" x="355" y="181" width="547" height="29" fill="black">
<rect fill="white" x="355" y="181" width="547" height="29"/>
<path d="M356.176 192.837C355.161 198.294 358.645 202.106 363.994 202.106C368.136 202.106 371.784 200.148 373.869 196.649H370.879C369.452 198.738 367.176 199.965 364.378 199.965C360.4 199.965 357.931 197.197 358.727 192.837C359.55 188.45 363.033 185.682 367.038 185.682C369.836 185.682 371.647 186.909 372.305 189.024H375.295C374.5 185.499 371.564 183.515 367.422 183.515C362.101 183.515 357.191 187.379 356.176 192.837Z"/>
<path d="M381.919 194.743C381.096 199.182 383.674 202.185 387.679 202.185C390.45 202.185 392.644 200.827 393.851 199.286L393.33 201.95H395.854L398.514 187.64H395.991L395.497 190.251C394.893 188.763 393.248 187.405 390.45 187.405C386.39 187.405 382.742 190.278 381.919 194.743ZM394.674 194.769C394.043 198.137 391.327 200.096 388.584 200.096C385.841 200.096 383.866 198.111 384.497 194.743C385.101 191.374 387.816 189.468 390.559 189.468C393.302 189.468 395.305 191.453 394.674 194.769Z"/>
<path d="M408.96 194.168C409.59 190.852 411.565 189.834 413.952 189.834H414.61L415.077 187.379C412.69 187.379 410.852 188.528 409.673 190.356L410.166 187.64H407.67L405.009 201.95H407.506L408.96 194.168Z"/>
<path d="M420.18 201.95H422.676L425.337 187.64H422.841L420.18 201.95ZM424.542 185.316C425.474 185.316 426.352 184.611 426.517 183.697C426.681 182.783 426.078 182.078 425.145 182.078C424.212 182.078 423.335 182.783 423.17 183.697C423.005 184.611 423.609 185.316 424.542 185.316Z"/>
<path d="M442.868 201.95H445.337L446.9 193.515C447.668 189.416 445.364 187.379 441.908 187.379C439.878 187.379 437.903 188.189 436.641 189.703L437.025 187.64H434.529L431.868 201.95H434.364L435.846 193.985V194.038C436.422 190.956 438.452 189.442 441.003 189.442C443.526 189.442 444.898 190.93 444.377 193.855L442.868 201.95Z"/>
<path d="M454.736 194.743C453.913 199.182 456.492 202.185 460.524 202.185C463.267 202.185 465.462 200.801 466.668 199.26L466.12 202.263C465.544 205.318 463.24 206.937 460.579 206.937C458.11 206.937 456.546 205.762 456.327 204.039H453.831C453.748 207.094 456.245 209 460.195 209C464.584 209 467.875 206.206 468.616 202.263L471.332 187.64H468.808L468.314 190.251C467.738 188.711 465.983 187.405 463.267 187.405C459.207 187.405 455.559 190.278 454.736 194.743ZM467.491 194.769C466.86 198.137 464.145 200.096 461.402 200.096C458.659 200.096 456.684 198.111 457.315 194.743C457.918 191.374 460.634 189.468 463.377 189.468C466.12 189.468 468.122 191.453 467.491 194.769Z"/>
<path d="M490.935 201.95H493.431L494.912 193.985V194.038C495.488 190.956 497.518 189.442 500.069 189.442C502.593 189.442 503.965 190.93 503.443 193.855L501.935 201.95H504.403L505.967 193.515C506.735 189.416 504.458 187.379 501.112 187.379C498.999 187.379 496.97 188.215 495.708 189.703L497.024 182.627H494.528L490.935 201.95Z"/>
<path d="M513.803 194.743C512.98 199.182 515.558 202.185 519.563 202.185C522.334 202.185 524.528 200.827 525.735 199.286L525.214 201.95H527.738L530.398 187.64H527.875L527.381 190.251C526.777 188.763 525.132 187.405 522.334 187.405C518.274 187.405 514.626 190.278 513.803 194.743ZM526.558 194.769C525.927 198.137 523.211 200.096 520.468 200.096C517.725 200.096 515.75 198.111 516.381 194.743C516.985 191.374 519.7 189.468 522.443 189.468C525.186 189.468 527.189 191.453 526.558 194.769Z"/>
<path d="M547.893 201.95H550.362L551.926 193.515C552.694 189.416 550.389 187.379 546.933 187.379C544.903 187.379 542.928 188.189 541.666 189.703L542.05 187.64H539.554L536.893 201.95H539.39L540.871 193.985V194.038C541.447 190.956 543.477 189.442 546.028 189.442C548.552 189.442 549.923 190.93 549.402 193.855L547.893 201.95Z"/>
<path d="M559.761 194.743C558.938 199.182 561.517 202.185 565.549 202.185C568.292 202.185 570.487 200.853 571.694 199.26L571.173 201.95H573.696L577.29 182.627H574.766L573.367 190.199C572.599 188.554 570.679 187.405 568.32 187.405C564.232 187.405 560.584 190.278 559.761 194.743ZM572.517 194.769C571.886 198.137 569.17 200.096 566.427 200.096C563.684 200.096 561.709 198.111 562.34 194.743C562.943 191.374 565.659 189.468 568.402 189.468C571.145 189.468 573.148 191.453 572.517 194.769Z"/>
<path d="M594.181 198.059C594.181 193.568 586.61 194.508 586.61 191.426C586.61 190.121 587.899 189.311 589.682 189.311C591.63 189.311 592.892 190.33 592.7 191.897H595.086C595.443 189.207 593.111 187.405 589.847 187.405C586.5 187.405 584.114 189.05 584.114 191.505C584.114 196.179 591.712 195.213 591.712 198.137C591.712 199.521 590.258 200.279 588.283 200.279C586.199 200.279 585.101 199.208 585.239 197.746H582.797C582.468 200.461 584.882 202.185 588.146 202.185C591.603 202.185 594.181 200.618 594.181 198.059Z"/>
<path d="M615.696 201.95H618.192L620.496 189.599H623.651L624.007 187.64H620.853L621.045 186.622C621.374 184.768 622.279 183.985 624.528 183.985L624.885 182C621.017 182 619.124 183.436 618.521 186.622L618.329 187.64H616.409L616.052 189.599H617.972L615.696 201.95Z"/>
<path d="M644.94 193.385C644.94 189.755 642.306 187.405 638.493 187.405C633.282 187.405 629.441 191.348 629.441 196.231C629.441 199.809 631.992 202.185 635.805 202.185C640.99 202.185 644.94 198.294 644.94 193.385ZM632.02 196.127C632.02 192.575 634.461 189.416 638.137 189.416C640.414 189.416 642.361 190.748 642.361 193.515C642.361 197.015 639.755 200.174 636.107 200.174C633.858 200.174 632.02 198.816 632.02 196.127Z"/>
<path d="M655.628 194.168C656.259 190.852 658.234 189.834 660.621 189.834H661.279L661.745 187.379C659.359 187.379 657.521 188.528 656.341 190.356L656.835 187.64H654.339L651.678 201.95H654.174L655.628 194.168Z"/>
<path d="M684.263 201.793L680.011 208.687H682.617L695.565 187.64H692.986L686.156 199.182L683.605 187.64H680.834L684.263 201.793Z"/>
<path d="M716.096 193.385C716.096 189.755 713.463 187.405 709.65 187.405C704.438 187.405 700.598 191.348 700.598 196.231C700.598 199.809 703.149 202.185 706.962 202.185C712.146 202.185 716.096 198.294 716.096 193.385ZM703.176 196.127C703.176 192.575 705.618 189.416 709.293 189.416C711.57 189.416 713.518 190.748 713.518 193.515C713.518 197.015 710.912 200.174 707.263 200.174C705.014 200.174 703.176 198.816 703.176 196.127Z"/>
<path d="M738.827 187.64H736.331L734.849 195.578V195.5C734.328 198.581 732.271 200.096 729.72 200.096C727.196 200.096 725.825 198.607 726.346 195.709L727.827 187.64H725.358L723.795 196.022C723.054 200.122 725.386 202.159 728.842 202.159C730.817 202.159 732.82 201.349 734.054 199.861L733.67 201.95H736.166L738.827 187.64Z"/>
<path d="M749.268 194.168C749.899 190.852 751.874 189.834 754.261 189.834H754.919L755.386 187.379C752.999 187.379 751.161 188.528 749.982 190.356L750.475 187.64H747.979L745.318 201.95H747.815L749.268 194.168Z"/>
<path d="M773.981 194.769C773.131 199.312 775.682 202.185 779.961 202.185C783.692 202.185 786.489 200.2 787.779 197.354H785.09C784.213 199.156 782.539 200.174 780.345 200.174C777.602 200.174 775.901 198.32 776.559 194.769C777.19 191.27 779.577 189.416 782.32 189.416C784.542 189.416 785.859 190.513 786.051 192.236H788.739C788.519 189.233 786.435 187.405 782.704 187.405C778.425 187.405 774.831 190.278 773.981 194.769Z"/>
<path d="M795.197 201.95H797.693L801.286 182.627H798.79L795.197 201.95Z"/>
<path d="M822.63 193.385C822.63 189.755 819.997 187.405 816.184 187.405C810.972 187.405 807.132 191.348 807.132 196.231C807.132 199.809 809.683 202.185 813.496 202.185C818.68 202.185 822.63 198.294 822.63 193.385ZM809.71 196.127C809.71 192.575 812.152 189.416 815.827 189.416C818.104 189.416 820.052 190.748 820.052 193.515C820.052 197.015 817.446 200.174 813.797 200.174C811.548 200.174 809.71 198.816 809.71 196.127Z"/>
<path d="M830.63 198.033C830.109 200.905 831.426 201.95 834.087 201.95H836.336L836.72 199.939H834.882C833.346 199.939 832.88 199.443 833.154 198.033L834.718 189.599H838.64L838.997 187.64H835.102L835.76 184.037H833.236L832.578 187.64H830.63L830.274 189.599H832.194L830.63 198.033Z"/>
<path d="M844.298 201.95H846.794L848.276 193.985V194.038C848.852 190.956 850.882 189.442 853.433 189.442C855.956 189.442 857.328 190.93 856.807 193.855L855.298 201.95H857.767L859.33 193.515C860.098 189.416 857.822 187.379 854.475 187.379C852.363 187.379 850.333 188.215 849.071 189.703L850.388 182.627H847.892L844.298 201.95Z"/>
<path d="M875.505 189.416C878.083 189.416 879.976 190.956 879.427 193.881H869.909C870.677 191.009 873.036 189.416 875.505 189.416ZM881.018 197.537H878.33C877.507 199.077 875.889 200.174 873.64 200.174C871.034 200.174 869.196 198.529 869.58 195.604H881.595C881.759 195.108 881.869 194.691 881.951 194.194C882.664 190.33 880.333 187.405 875.971 187.405C871.61 187.405 868.016 190.251 867.166 194.769C866.315 199.312 868.976 202.185 873.256 202.185C876.986 202.185 879.757 200.148 881.018 197.537Z"/>
<path d="M900.059 198.059C900.059 193.568 892.488 194.508 892.488 191.426C892.488 190.121 893.777 189.311 895.56 189.311C897.508 189.311 898.77 190.33 898.578 191.897H900.964C901.321 189.207 898.989 187.405 895.725 187.405C892.378 187.405 889.992 189.05 889.992 191.505C889.992 196.179 897.59 195.213 897.59 198.137C897.59 199.521 896.136 200.279 894.161 200.279C892.076 200.279 890.979 199.208 891.116 197.746H888.675C888.346 200.461 890.76 202.185 894.024 202.185C897.48 202.185 900.059 200.618 900.059 198.059Z"/>
</mask>
<path d="M356.176 192.837C355.161 198.294 358.645 202.106 363.994 202.106C368.136 202.106 371.784 200.148 373.869 196.649H370.879C369.452 198.738 367.176 199.965 364.378 199.965C360.4 199.965 357.931 197.197 358.727 192.837C359.55 188.45 363.033 185.682 367.038 185.682C369.836 185.682 371.647 186.909 372.305 189.024H375.295C374.5 185.499 371.564 183.515 367.422 183.515C362.101 183.515 357.191 187.379 356.176 192.837Z" fill="#323233"/>
<path d="M381.919 194.743C381.096 199.182 383.674 202.185 387.679 202.185C390.45 202.185 392.644 200.827 393.851 199.286L393.33 201.95H395.854L398.514 187.64H395.991L395.497 190.251C394.893 188.763 393.248 187.405 390.45 187.405C386.39 187.405 382.742 190.278 381.919 194.743ZM394.674 194.769C394.043 198.137 391.327 200.096 388.584 200.096C385.841 200.096 383.866 198.111 384.497 194.743C385.101 191.374 387.816 189.468 390.559 189.468C393.302 189.468 395.305 191.453 394.674 194.769Z" fill="#323233"/>
<path d="M408.96 194.168C409.59 190.852 411.565 189.834 413.952 189.834H414.61L415.077 187.379C412.69 187.379 410.852 188.528 409.673 190.356L410.166 187.64H407.67L405.009 201.95H407.506L408.96 194.168Z" fill="#323233"/>
<path d="M420.18 201.95H422.676L425.337 187.64H422.841L420.18 201.95ZM424.542 185.316C425.474 185.316 426.352 184.611 426.517 183.697C426.681 182.783 426.078 182.078 425.145 182.078C424.212 182.078 423.335 182.783 423.17 183.697C423.005 184.611 423.609 185.316 424.542 185.316Z" fill="#323233"/>
<path d="M442.868 201.95H445.337L446.9 193.515C447.668 189.416 445.364 187.379 441.908 187.379C439.878 187.379 437.903 188.189 436.641 189.703L437.025 187.64H434.529L431.868 201.95H434.364L435.846 193.985V194.038C436.422 190.956 438.452 189.442 441.003 189.442C443.526 189.442 444.898 190.93 444.377 193.855L442.868 201.95Z" fill="#323233"/>
<path d="M454.736 194.743C453.913 199.182 456.492 202.185 460.524 202.185C463.267 202.185 465.462 200.801 466.668 199.26L466.12 202.263C465.544 205.318 463.24 206.937 460.579 206.937C458.11 206.937 456.546 205.762 456.327 204.039H453.831C453.748 207.094 456.245 209 460.195 209C464.584 209 467.875 206.206 468.616 202.263L471.332 187.64H468.808L468.314 190.251C467.738 188.711 465.983 187.405 463.267 187.405C459.207 187.405 455.559 190.278 454.736 194.743ZM467.491 194.769C466.86 198.137 464.145 200.096 461.402 200.096C458.659 200.096 456.684 198.111 457.315 194.743C457.918 191.374 460.634 189.468 463.377 189.468C466.12 189.468 468.122 191.453 467.491 194.769Z" fill="#323233"/>
<path d="M490.935 201.95H493.431L494.912 193.985V194.038C495.488 190.956 497.518 189.442 500.069 189.442C502.593 189.442 503.965 190.93 503.443 193.855L501.935 201.95H504.403L505.967 193.515C506.735 189.416 504.458 187.379 501.112 187.379C498.999 187.379 496.97 188.215 495.708 189.703L497.024 182.627H494.528L490.935 201.95Z" fill="#323233"/>
<path d="M513.803 194.743C512.98 199.182 515.558 202.185 519.563 202.185C522.334 202.185 524.528 200.827 525.735 199.286L525.214 201.95H527.738L530.398 187.64H527.875L527.381 190.251C526.777 188.763 525.132 187.405 522.334 187.405C518.274 187.405 514.626 190.278 513.803 194.743ZM526.558 194.769C525.927 198.137 523.211 200.096 520.468 200.096C517.725 200.096 515.75 198.111 516.381 194.743C516.985 191.374 519.7 189.468 522.443 189.468C525.186 189.468 527.189 191.453 526.558 194.769Z" fill="#323233"/>
<path d="M547.893 201.95H550.362L551.926 193.515C552.694 189.416 550.389 187.379 546.933 187.379C544.903 187.379 542.928 188.189 541.666 189.703L542.05 187.64H539.554L536.893 201.95H539.39L540.871 193.985V194.038C541.447 190.956 543.477 189.442 546.028 189.442C548.552 189.442 549.923 190.93 549.402 193.855L547.893 201.95Z" fill="#323233"/>
<path d="M559.761 194.743C558.938 199.182 561.517 202.185 565.549 202.185C568.292 202.185 570.487 200.853 571.694 199.26L571.173 201.95H573.696L577.29 182.627H574.766L573.367 190.199C572.599 188.554 570.679 187.405 568.32 187.405C564.232 187.405 560.584 190.278 559.761 194.743ZM572.517 194.769C571.886 198.137 569.17 200.096 566.427 200.096C563.684 200.096 561.709 198.111 562.34 194.743C562.943 191.374 565.659 189.468 568.402 189.468C571.145 189.468 573.148 191.453 572.517 194.769Z" fill="#323233"/>
<path d="M594.181 198.059C594.181 193.568 586.61 194.508 586.61 191.426C586.61 190.121 587.899 189.311 589.682 189.311C591.63 189.311 592.892 190.33 592.7 191.897H595.086C595.443 189.207 593.111 187.405 589.847 187.405C586.5 187.405 584.114 189.05 584.114 191.505C584.114 196.179 591.712 195.213 591.712 198.137C591.712 199.521 590.258 200.279 588.283 200.279C586.199 200.279 585.101 199.208 585.239 197.746H582.797C582.468 200.461 584.882 202.185 588.146 202.185C591.603 202.185 594.181 200.618 594.181 198.059Z" fill="#323233"/>
<path d="M615.696 201.95H618.192L620.496 189.599H623.651L624.007 187.64H620.853L621.045 186.622C621.374 184.768 622.279 183.985 624.528 183.985L624.885 182C621.017 182 619.124 183.436 618.521 186.622L618.329 187.64H616.409L616.052 189.599H617.972L615.696 201.95Z" fill="#323233"/>
<path d="M644.94 193.385C644.94 189.755 642.306 187.405 638.493 187.405C633.282 187.405 629.441 191.348 629.441 196.231C629.441 199.809 631.992 202.185 635.805 202.185C640.99 202.185 644.94 198.294 644.94 193.385ZM632.02 196.127C632.02 192.575 634.461 189.416 638.137 189.416C640.414 189.416 642.361 190.748 642.361 193.515C642.361 197.015 639.755 200.174 636.107 200.174C633.858 200.174 632.02 198.816 632.02 196.127Z" fill="#323233"/>
<path d="M655.628 194.168C656.259 190.852 658.234 189.834 660.621 189.834H661.279L661.745 187.379C659.359 187.379 657.521 188.528 656.341 190.356L656.835 187.64H654.339L651.678 201.95H654.174L655.628 194.168Z" fill="#323233"/>
<path d="M684.263 201.793L680.011 208.687H682.617L695.565 187.64H692.986L686.156 199.182L683.605 187.64H680.834L684.263 201.793Z" fill="#323233"/>
<path d="M716.096 193.385C716.096 189.755 713.463 187.405 709.65 187.405C704.438 187.405 700.598 191.348 700.598 196.231C700.598 199.809 703.149 202.185 706.962 202.185C712.146 202.185 716.096 198.294 716.096 193.385ZM703.176 196.127C703.176 192.575 705.618 189.416 709.293 189.416C711.57 189.416 713.518 190.748 713.518 193.515C713.518 197.015 710.912 200.174 707.263 200.174C705.014 200.174 703.176 198.816 703.176 196.127Z" fill="#323233"/>
<path d="M738.827 187.64H736.331L734.849 195.578V195.5C734.328 198.581 732.271 200.096 729.72 200.096C727.196 200.096 725.825 198.607 726.346 195.709L727.827 187.64H725.358L723.795 196.022C723.054 200.122 725.386 202.159 728.842 202.159C730.817 202.159 732.82 201.349 734.054 199.861L733.67 201.95H736.166L738.827 187.64Z" fill="#323233"/>
<path d="M749.268 194.168C749.899 190.852 751.874 189.834 754.261 189.834H754.919L755.386 187.379C752.999 187.379 751.161 188.528 749.982 190.356L750.475 187.64H747.979L745.318 201.95H747.815L749.268 194.168Z" fill="#323233"/>
<path d="M773.981 194.769C773.131 199.312 775.682 202.185 779.961 202.185C783.692 202.185 786.489 200.2 787.779 197.354H785.09C784.213 199.156 782.539 200.174 780.345 200.174C777.602 200.174 775.901 198.32 776.559 194.769C777.19 191.27 779.577 189.416 782.32 189.416C784.542 189.416 785.859 190.513 786.051 192.236H788.739C788.519 189.233 786.435 187.405 782.704 187.405C778.425 187.405 774.831 190.278 773.981 194.769Z" fill="#323233"/>
<path d="M795.197 201.95H797.693L801.286 182.627H798.79L795.197 201.95Z" fill="#323233"/>
<path d="M822.63 193.385C822.63 189.755 819.997 187.405 816.184 187.405C810.972 187.405 807.132 191.348 807.132 196.231C807.132 199.809 809.683 202.185 813.496 202.185C818.68 202.185 822.63 198.294 822.63 193.385ZM809.71 196.127C809.71 192.575 812.152 189.416 815.827 189.416C818.104 189.416 820.052 190.748 820.052 193.515C820.052 197.015 817.446 200.174 813.797 200.174C811.548 200.174 809.71 198.816 809.71 196.127Z" fill="#323233"/>
<path d="M830.63 198.033C830.109 200.905 831.426 201.95 834.087 201.95H836.336L836.72 199.939H834.882C833.346 199.939 832.88 199.443 833.154 198.033L834.718 189.599H838.64L838.997 187.64H835.102L835.76 184.037H833.236L832.578 187.64H830.63L830.274 189.599H832.194L830.63 198.033Z" fill="#323233"/>
<path d="M844.298 201.95H846.794L848.276 193.985V194.038C848.852 190.956 850.882 189.442 853.433 189.442C855.956 189.442 857.328 190.93 856.807 193.855L855.298 201.95H857.767L859.33 193.515C860.098 189.416 857.822 187.379 854.475 187.379C852.363 187.379 850.333 188.215 849.071 189.703L850.388 182.627H847.892L844.298 201.95Z" fill="#323233"/>
<path d="M875.505 189.416C878.083 189.416 879.976 190.956 879.427 193.881H869.909C870.677 191.009 873.036 189.416 875.505 189.416ZM881.018 197.537H878.33C877.507 199.077 875.889 200.174 873.64 200.174C871.034 200.174 869.196 198.529 869.58 195.604H881.595C881.759 195.108 881.869 194.691 881.951 194.194C882.664 190.33 880.333 187.405 875.971 187.405C871.61 187.405 868.016 190.251 867.166 194.769C866.315 199.312 868.976 202.185 873.256 202.185C876.986 202.185 879.757 200.148 881.018 197.537Z" fill="#323233"/>
<path d="M900.059 198.059C900.059 193.568 892.488 194.508 892.488 191.426C892.488 190.121 893.777 189.311 895.56 189.311C897.508 189.311 898.77 190.33 898.578 191.897H900.964C901.321 189.207 898.989 187.405 895.725 187.405C892.378 187.405 889.992 189.05 889.992 191.505C889.992 196.179 897.59 195.213 897.59 198.137C897.59 199.521 896.136 200.279 894.161 200.279C892.076 200.279 890.979 199.208 891.116 197.746H888.675C888.346 200.461 890.76 202.185 894.024 202.185C897.48 202.185 900.059 200.618 900.059 198.059Z" fill="#323233"/>
<path d="M356.176 192.837C355.161 198.294 358.645 202.106 363.994 202.106C368.136 202.106 371.784 200.148 373.869 196.649H370.879C369.452 198.738 367.176 199.965 364.378 199.965C360.4 199.965 357.931 197.197 358.727 192.837C359.55 188.45 363.033 185.682 367.038 185.682C369.836 185.682 371.647 186.909 372.305 189.024H375.295C374.5 185.499 371.564 183.515 367.422 183.515C362.101 183.515 357.191 187.379 356.176 192.837Z" stroke="#323233" stroke-width="0.8" mask="url(#path-4-outside-1_83_76)"/>
<path d="M381.919 194.743C381.096 199.182 383.674 202.185 387.679 202.185C390.45 202.185 392.644 200.827 393.851 199.286L393.33 201.95H395.854L398.514 187.64H395.991L395.497 190.251C394.893 188.763 393.248 187.405 390.45 187.405C386.39 187.405 382.742 190.278 381.919 194.743ZM394.674 194.769C394.043 198.137 391.327 200.096 388.584 200.096C385.841 200.096 383.866 198.111 384.497 194.743C385.101 191.374 387.816 189.468 390.559 189.468C393.302 189.468 395.305 191.453 394.674 194.769Z" stroke="#323233" stroke-width="0.8" mask="url(#path-4-outside-1_83_76)"/>
<path d="M408.96 194.168C409.59 190.852 411.565 189.834 413.952 189.834H414.61L415.077 187.379C412.69 187.379 410.852 188.528 409.673 190.356L410.166 187.64H407.67L405.009 201.95H407.506L408.96 194.168Z" stroke="#323233" stroke-width="0.8" mask="url(#path-4-outside-1_83_76)"/>
<path d="M420.18 201.95H422.676L425.337 187.64H422.841L420.18 201.95ZM424.542 185.316C425.474 185.316 426.352 184.611 426.517 183.697C426.681 182.783 426.078 182.078 425.145 182.078C424.212 182.078 423.335 182.783 423.17 183.697C423.005 184.611 423.609 185.316 424.542 185.316Z" stroke="#323233" stroke-width="0.8" mask="url(#path-4-outside-1_83_76)"/>
<path d="M442.868 201.95H445.337L446.9 193.515C447.668 189.416 445.364 187.379 441.908 187.379C439.878 187.379 437.903 188.189 436.641 189.703L437.025 187.64H434.529L431.868 201.95H434.364L435.846 193.985V194.038C436.422 190.956 438.452 189.442 441.003 189.442C443.526 189.442 444.898 190.93 444.377 193.855L442.868 201.95Z" stroke="#323233" stroke-width="0.8" mask="url(#path-4-outside-1_83_76)"/>
<path d="M454.736 194.743C453.913 199.182 456.492 202.185 460.524 202.185C463.267 202.185 465.462 200.801 466.668 199.26L466.12 202.263C465.544 205.318 463.24 206.937 460.579 206.937C458.11 206.937 456.546 205.762 456.327 204.039H453.831C453.748 207.094 456.245 209 460.195 209C464.584 209 467.875 206.206 468.616 202.263L471.332 187.64H468.808L468.314 190.251C467.738 188.711 465.983 187.405 463.267 187.405C459.207 187.405 455.559 190.278 454.736 194.743ZM467.491 194.769C466.86 198.137 464.145 200.096 461.402 200.096C458.659 200.096 456.684 198.111 457.315 194.743C457.918 191.374 460.634 189.468 463.377 189.468C466.12 189.468 468.122 191.453 467.491 194.769Z" stroke="#323233" stroke-width="0.8" mask="url(#path-4-outside-1_83_76)"/>
<path d="M490.935 201.95H493.431L494.912 193.985V194.038C495.488 190.956 497.518 189.442 500.069 189.442C502.593 189.442 503.965 190.93 503.443 193.855L501.935 201.95H504.403L505.967 193.515C506.735 189.416 504.458 187.379 501.112 187.379C498.999 187.379 496.97 188.215 495.708 189.703L497.024 182.627H494.528L490.935 201.95Z" stroke="#323233" stroke-width="0.8" mask="url(#path-4-outside-1_83_76)"/>
<path d="M513.803 194.743C512.98 199.182 515.558 202.185 519.563 202.185C522.334 202.185 524.528 200.827 525.735 199.286L525.214 201.95H527.738L530.398 187.64H527.875L527.381 190.251C526.777 188.763 525.132 187.405 522.334 187.405C518.274 187.405 514.626 190.278 513.803 194.743ZM526.558 194.769C525.927 198.137 523.211 200.096 520.468 200.096C517.725 200.096 515.75 198.111 516.381 194.743C516.985 191.374 519.7 189.468 522.443 189.468C525.186 189.468 527.189 191.453 526.558 194.769Z" stroke="#323233" stroke-width="0.8" mask="url(#path-4-outside-1_83_76)"/>
<path d="M547.893 201.95H550.362L551.926 193.515C552.694 189.416 550.389 187.379 546.933 187.379C544.903 187.379 542.928 188.189 541.666 189.703L542.05 187.64H539.554L536.893 201.95H539.39L540.871 193.985V194.038C541.447 190.956 543.477 189.442 546.028 189.442C548.552 189.442 549.923 190.93 549.402 193.855L547.893 201.95Z" stroke="#323233" stroke-width="0.8" mask="url(#path-4-outside-1_83_76)"/>
<path d="M559.761 194.743C558.938 199.182 561.517 202.185 565.549 202.185C568.292 202.185 570.487 200.853 571.694 199.26L571.173 201.95H573.696L577.29 182.627H574.766L573.367 190.199C572.599 188.554 570.679 187.405 568.32 187.405C564.232 187.405 560.584 190.278 559.761 194.743ZM572.517 194.769C571.886 198.137 569.17 200.096 566.427 200.096C563.684 200.096 561.709 198.111 562.34 194.743C562.943 191.374 565.659 189.468 568.402 189.468C571.145 189.468 573.148 191.453 572.517 194.769Z" stroke="#323233" stroke-width="0.8" mask="url(#path-4-outside-1_83_76)"/>
<path d="M594.181 198.059C594.181 193.568 586.61 194.508 586.61 191.426C586.61 190.121 587.899 189.311 589.682 189.311C591.63 189.311 592.892 190.33 592.7 191.897H595.086C595.443 189.207 593.111 187.405 589.847 187.405C586.5 187.405 584.114 189.05 584.114 191.505C584.114 196.179 591.712 195.213 591.712 198.137C591.712 199.521 590.258 200.279 588.283 200.279C586.199 200.279 585.101 199.208 585.239 197.746H582.797C582.468 200.461 584.882 202.185 588.146 202.185C591.603 202.185 594.181 200.618 594.181 198.059Z" stroke="#323233" stroke-width="0.8" mask="url(#path-4-outside-1_83_76)"/>
<path d="M615.696 201.95H618.192L620.496 189.599H623.651L624.007 187.64H620.853L621.045 186.622C621.374 184.768 622.279 183.985 624.528 183.985L624.885 182C621.017 182 619.124 183.436 618.521 186.622L618.329 187.64H616.409L616.052 189.599H617.972L615.696 201.95Z" stroke="#323233" stroke-width="0.8" mask="url(#path-4-outside-1_83_76)"/>
<path d="M644.94 193.385C644.94 189.755 642.306 187.405 638.493 187.405C633.282 187.405 629.441 191.348 629.441 196.231C629.441 199.809 631.992 202.185 635.805 202.185C640.99 202.185 644.94 198.294 644.94 193.385ZM632.02 196.127C632.02 192.575 634.461 189.416 638.137 189.416C640.414 189.416 642.361 190.748 642.361 193.515C642.361 197.015 639.755 200.174 636.107 200.174C633.858 200.174 632.02 198.816 632.02 196.127Z" stroke="#323233" stroke-width="0.8" mask="url(#path-4-outside-1_83_76)"/>
<path d="M655.628 194.168C656.259 190.852 658.234 189.834 660.621 189.834H661.279L661.745 187.379C659.359 187.379 657.521 188.528 656.341 190.356L656.835 187.64H654.339L651.678 201.95H654.174L655.628 194.168Z" stroke="#323233" stroke-width="0.8" mask="url(#path-4-outside-1_83_76)"/>
<path d="M684.263 201.793L680.011 208.687H682.617L695.565 187.64H692.986L686.156 199.182L683.605 187.64H680.834L684.263 201.793Z" stroke="#323233" stroke-width="0.8" mask="url(#path-4-outside-1_83_76)"/>
<path d="M716.096 193.385C716.096 189.755 713.463 187.405 709.65 187.405C704.438 187.405 700.598 191.348 700.598 196.231C700.598 199.809 703.149 202.185 706.962 202.185C712.146 202.185 716.096 198.294 716.096 193.385ZM703.176 196.127C703.176 192.575 705.618 189.416 709.293 189.416C711.57 189.416 713.518 190.748 713.518 193.515C713.518 197.015 710.912 200.174 707.263 200.174C705.014 200.174 703.176 198.816 703.176 196.127Z" stroke="#323233" stroke-width="0.8" mask="url(#path-4-outside-1_83_76)"/>
<path d="M738.827 187.64H736.331L734.849 195.578V195.5C734.328 198.581 732.271 200.096 729.72 200.096C727.196 200.096 725.825 198.607 726.346 195.709L727.827 187.64H725.358L723.795 196.022C723.054 200.122 725.386 202.159 728.842 202.159C730.817 202.159 732.82 201.349 734.054 199.861L733.67 201.95H736.166L738.827 187.64Z" stroke="#323233" stroke-width="0.8" mask="url(#path-4-outside-1_83_76)"/>
<path d="M749.268 194.168C749.899 190.852 751.874 189.834 754.261 189.834H754.919L755.386 187.379C752.999 187.379 751.161 188.528 749.982 190.356L750.475 187.64H747.979L745.318 201.95H747.815L749.268 194.168Z" stroke="#323233" stroke-width="0.8" mask="url(#path-4-outside-1_83_76)"/>
<path d="M773.981 194.769C773.131 199.312 775.682 202.185 779.961 202.185C783.692 202.185 786.489 200.2 787.779 197.354H785.09C784.213 199.156 782.539 200.174 780.345 200.174C777.602 200.174 775.901 198.32 776.559 194.769C777.19 191.27 779.577 189.416 782.32 189.416C784.542 189.416 785.859 190.513 786.051 192.236H788.739C788.519 189.233 786.435 187.405 782.704 187.405C778.425 187.405 774.831 190.278 773.981 194.769Z" stroke="#323233" stroke-width="0.8" mask="url(#path-4-outside-1_83_76)"/>
<path d="M795.197 201.95H797.693L801.286 182.627H798.79L795.197 201.95Z" stroke="#323233" stroke-width="0.8" mask="url(#path-4-outside-1_83_76)"/>
<path d="M822.63 193.385C822.63 189.755 819.997 187.405 816.184 187.405C810.972 187.405 807.132 191.348 807.132 196.231C807.132 199.809 809.683 202.185 813.496 202.185C818.68 202.185 822.63 198.294 822.63 193.385ZM809.71 196.127C809.71 192.575 812.152 189.416 815.827 189.416C818.104 189.416 820.052 190.748 820.052 193.515C820.052 197.015 817.446 200.174 813.797 200.174C811.548 200.174 809.71 198.816 809.71 196.127Z" stroke="#323233" stroke-width="0.8" mask="url(#path-4-outside-1_83_76)"/>
<path d="M830.63 198.033C830.109 200.905 831.426 201.95 834.087 201.95H836.336L836.72 199.939H834.882C833.346 199.939 832.88 199.443 833.154 198.033L834.718 189.599H838.64L838.997 187.64H835.102L835.76 184.037H833.236L832.578 187.64H830.63L830.274 189.599H832.194L830.63 198.033Z" stroke="#323233" stroke-width="0.8" mask="url(#path-4-outside-1_83_76)"/>
<path d="M844.298 201.95H846.794L848.276 193.985V194.038C848.852 190.956 850.882 189.442 853.433 189.442C855.956 189.442 857.328 190.93 856.807 193.855L855.298 201.95H857.767L859.33 193.515C860.098 189.416 857.822 187.379 854.475 187.379C852.363 187.379 850.333 188.215 849.071 189.703L850.388 182.627H847.892L844.298 201.95Z" stroke="#323233" stroke-width="0.8" mask="url(#path-4-outside-1_83_76)"/>
<path d="M875.505 189.416C878.083 189.416 879.976 190.956 879.427 193.881H869.909C870.677 191.009 873.036 189.416 875.505 189.416ZM881.018 197.537H878.33C877.507 199.077 875.889 200.174 873.64 200.174C871.034 200.174 869.196 198.529 869.58 195.604H881.595C881.759 195.108 881.869 194.691 881.951 194.194C882.664 190.33 880.333 187.405 875.971 187.405C871.61 187.405 868.016 190.251 867.166 194.769C866.315 199.312 868.976 202.185 873.256 202.185C876.986 202.185 879.757 200.148 881.018 197.537Z" stroke="#323233" stroke-width="0.8" mask="url(#path-4-outside-1_83_76)"/>
<path d="M900.059 198.059C900.059 193.568 892.488 194.508 892.488 191.426C892.488 190.121 893.777 189.311 895.56 189.311C897.508 189.311 898.77 190.33 898.578 191.897H900.964C901.321 189.207 898.989 187.405 895.725 187.405C892.378 187.405 889.992 189.05 889.992 191.505C889.992 196.179 897.59 195.213 897.59 198.137C897.59 199.521 896.136 200.279 894.161 200.279C892.076 200.279 890.979 199.208 891.116 197.746H888.675C888.346 200.461 890.76 202.185 894.024 202.185C897.48 202.185 900.059 200.618 900.059 198.059Z" stroke="#323233" stroke-width="0.8" mask="url(#path-4-outside-1_83_76)"/>
</g>
<path d="M245.938 122.969C245.938 190.883 190.883 245.938 122.969 245.938C55.055 245.938 0 190.883 0 122.969C0 55.055 55.055 0 122.969 0C190.883 0 245.938 55.055 245.938 122.969Z" fill="#BD3935"/>
<path fill-rule="evenodd" clip-rule="evenodd" d="M129.514 122.579C129.84 92.177 149.733 72.7058 177.499 73.0034C198.824 73.2319 213.361 84.0375 219.892 100.046C219.746 100.046 219.595 100.083 219.44 100.159C213.5 103.058 183.121 105.87 178.054 103.607C176.544 102.933 176.138 102.588 176.186 101.998L181.215 92.504L172.523 87.9074C171.297 89.747 167.985 92.1727 164.644 94.6204C161.457 96.9544 158.243 99.3084 156.784 101.193C153.795 105.055 154.006 110.741 154.485 113.101C158.377 122.213 156.365 130.674 155.121 135.906C154.849 137.05 154.614 138.039 154.485 138.848C153.91 142.452 155.299 145.713 156.066 146.893L172.523 160.841L180.928 156.387L176.473 147.859C175.668 145.542 177.191 145.284 178.054 145.445C184.053 145.777 190.317 145.715 196.141 145.657C206.59 145.553 215.627 145.464 219.186 147.689C212.222 164.047 197.547 173.222 176.427 172.996C148.661 172.698 129.19 152.805 129.514 122.579Z" fill="white"/>
<path d="M26 121.656C26 151.868 44.9705 170.312 72.1968 170.312C94.856 170.312 110.138 156.962 115.056 140.099V169.082H118.394V74.2296H115.056V103.212C110.138 86.3496 94.856 73 72.1968 73C44.9705 73 26 91.4436 26 121.656ZM115.056 121.656C115.056 149.058 96.9638 167.15 72.1968 167.15C46.2001 167.15 29.5131 149.936 29.5131 121.656C29.5131 93.3758 46.2001 76.1618 72.1968 76.1618C96.9638 76.1618 115.056 94.254 115.056 121.656Z" fill="white"/>
<path fill-rule="evenodd" clip-rule="evenodd" d="M47.0547 94.5328C41.0406 100.942 37.5957 110.307 37.5957 122.097C37.5957 133.888 41.0406 143.253 47.0547 149.662C53.062 156.064 61.7352 159.626 72.4188 159.626C82.5596 159.626 91.2825 155.894 97.4736 149.378C103.667 142.859 107.39 133.485 107.39 122.097C107.39 110.71 103.667 101.336 97.4736 94.817C91.2825 88.3005 82.5596 84.5688 72.4188 84.5688C61.7352 84.5688 53.062 88.131 47.0547 94.5328ZM45.4972 93.0712C51.9705 86.1729 61.2428 82.433 72.4188 82.433C83.1037 82.433 92.4002 86.3759 99.022 93.3458C105.641 100.313 109.526 110.237 109.526 122.097C109.526 133.957 105.641 143.882 99.022 150.849C92.4002 157.819 83.1037 161.762 72.4188 161.762C61.2428 161.762 51.9705 158.022 45.4972 151.124C39.0306 144.232 35.4598 134.3 35.4598 122.097C35.4598 109.895 39.0306 99.9624 45.4972 93.0712Z" fill="white"/>
<path d="M103.193 115.081H111.965V130.871H103.193V115.081Z" fill="white"/>
<path d="M66.8034 110.217C65.4725 110.805 63.3894 113.331 63.3547 113.988C63.3547 113.988 61.4624 112.9 63.5108 111.031C65.5592 109.163 68.1344 109.628 66.8034 110.217Z" fill="white"/>
<path d="M70.3672 94.5142C67.4461 95.6778 65.7707 97.4563 65.2981 98.2C65.5662 97.2258 65.4195 95.9004 67.8094 93.7202C69.5164 92.1629 74.0186 93.0596 70.3672 94.5142Z" fill="white"/>
<path d="M66.0227 122.174C64.722 123.983 64.3903 125.679 64.387 126.301C64.1829 125.621 63.8614 123.945 64.2078 122.684C64.6408 121.107 67.6486 119.913 66.0227 122.174Z" fill="white"/>
<path fill-rule="evenodd" clip-rule="evenodd" d="M52.7214 106.873C53.4736 104.936 55.4455 100.823 57.3157 99.8672C59.6535 98.6728 57.6452 93.625 50.7131 101.825C43.781 110.025 37.4049 126.161 50.7445 144.326C64.0842 162.491 94.4357 153.88 100.933 135.444C94.6008 140.491 78.7427 147.056 65.9691 132.94L70.2112 138.764C70.6819 140.107 70.6211 142.081 66.6118 139.233C61.6002 135.674 54.4589 129.367 58.6479 117.728C58.6941 116.852 58.37 115.605 56.7035 117.625C55.9687 119.234 54.5476 121.531 54.7418 117.851C54.9845 113.252 57.137 109.412 59.5789 106.246C62.0207 103.081 53.5897 108.895 53.5203 110.209C53.4509 111.524 50.9276 110.072 52.7214 106.873ZM49.0585 122.039C48.3673 120.281 48.5545 116.733 50.2051 115.122C49.8237 116.964 49.0603 120.926 49.0585 122.039ZM62.1733 143.282C58.9847 142.125 53.6392 138.348 52.7343 131.253C53.9709 134.502 57.59 141.458 62.1733 143.282ZM80.7387 151.597C68.5436 154.031 62.1847 152.154 55.4755 145.983C56.326 146.408 57.3573 146.978 58.4227 147.567C60.8734 148.921 63.5043 150.374 64.5288 150.397C64.4441 150.248 64.1233 149.918 63.7655 149.551C62.6262 148.38 61.1119 146.824 65.6513 149.5C68.8872 151.409 70.9048 151.439 77.1692 151.534C78.2287 151.55 79.4097 151.568 80.7387 151.597Z" fill="white"/>
<path fill-rule="evenodd" clip-rule="evenodd" d="M88.4636 109.833C90.8698 109.833 92.8204 107.882 92.8204 105.476C92.8204 103.07 90.8698 101.119 88.4636 101.119C86.0574 101.119 84.1068 103.07 84.1068 105.476C84.1068 107.882 86.0574 109.833 88.4636 109.833ZM88.4636 110.58C91.2823 110.58 93.5673 108.295 93.5673 105.476C93.5673 102.657 91.2823 100.372 88.4636 100.372C85.6449 100.372 83.3599 102.657 83.3599 105.476C83.3599 108.295 85.6449 110.58 88.4636 110.58Z" fill="white"/>
<path fill-rule="evenodd" clip-rule="evenodd" d="M85.9957 103.809C85.7435 104.371 85.7003 104.959 85.7359 105.314L84.9927 105.389C84.9459 104.922 85.0016 104.2 85.3143 103.503C85.6318 102.796 86.2181 102.109 87.2211 101.762L87.4654 102.468C86.6874 102.737 86.243 103.258 85.9957 103.809Z" fill="white"/>
<path fill-rule="evenodd" clip-rule="evenodd" d="M102.073 116.887C103.678 116.887 104.978 115.586 104.978 113.982C104.978 112.378 103.678 111.078 102.073 111.078C100.469 111.078 99.1688 112.378 99.1688 113.982C99.1688 115.586 100.469 116.887 102.073 116.887ZM102.073 117.384C103.952 117.384 105.476 115.861 105.476 113.982C105.476 112.103 103.952 110.58 102.073 110.58C100.194 110.58 98.6709 112.103 98.6709 113.982C98.6709 115.861 100.194 117.384 102.073 117.384Z" fill="white"/>
<path fill-rule="evenodd" clip-rule="evenodd" d="M101.511 112.079C100.311 112.42 100.135 113.397 100.188 113.826L99.6937 113.886C99.621 113.291 99.8709 112.028 101.375 111.6L101.511 112.079Z" fill="white"/>
<path fill-rule="evenodd" clip-rule="evenodd" d="M91.0154 133.525C93.8226 133.525 96.0983 131.25 96.0983 128.442C96.0983 125.635 93.8226 123.36 91.0154 123.36C88.2082 123.36 85.9325 125.635 85.9325 128.442C85.9325 131.25 88.2082 133.525 91.0154 133.525ZM91.0154 134.397C94.3039 134.397 96.9697 131.731 96.9697 128.442C96.9697 125.154 94.3039 122.488 91.0154 122.488C87.727 122.488 85.0611 125.154 85.0611 128.442C85.0611 131.731 87.727 134.397 91.0154 134.397Z" fill="white"/>
<path fill-rule="evenodd" clip-rule="evenodd" d="M88.1361 126.498C87.8419 127.153 87.7915 127.839 87.833 128.254L86.966 128.341C86.9114 127.796 86.9764 126.954 87.3411 126.141C87.7116 125.316 88.3956 124.515 89.5658 124.11L89.8508 124.933C88.9431 125.247 88.4247 125.855 88.1361 126.498Z" fill="white"/>
<path fill-rule="evenodd" clip-rule="evenodd" d="M89.4369 131.689C89.8033 131.924 90.2115 132.016 90.4579 132.028L90.4156 132.898C90.0382 132.88 89.4779 132.751 88.9664 132.423C88.4433 132.087 87.9662 131.538 87.8099 130.701L88.6665 130.541C88.7718 131.105 89.0821 131.462 89.4369 131.689Z" fill="white"/>
<path d="M352.289 58.6465V81.4322C347.255 67.6987 334.166 57.1738 315.3 57.1738C303.332 57.1738 293.148 61.2295 285.956 68.6343C278.765 76.0386 274.6 86.7564 274.6 100.019C274.6 113.282 278.765 124 285.956 131.404C293.148 138.809 303.332 142.865 315.3 142.865C334.166 142.865 347.255 132.34 352.289 118.606V141.392V141.792H352.689H355.6H356V141.392V58.6465V58.2465H355.6H352.689H352.289V58.6465ZM387.823 141.392V141.792H388.223H391.288H391.688V141.392V62.2643H415.039H415.439V61.8643V58.6465V58.2465H415.039H391.688V52.8236C391.688 45.4255 393.064 40.1232 396.605 36.6561C400.15 33.1857 405.955 31.4646 415.039 31.4646H415.439V31.0646V28V27.6H415.039C404.955 27.6 398.124 29.7923 393.821 34.0955C389.517 38.3994 387.823 44.7338 387.823 52.8236V58.2465H374.739H374.339V58.6465V61.8643V62.2643H374.739H387.823V141.392ZM469.185 141.792H469.585V141.392V138.327V137.927H469.185H460.451C454.184 137.927 450.004 136.966 447.367 134.274C444.726 131.578 443.535 127.048 443.535 119.633V62.1111H469.185H469.585V61.7111V58.6465V58.2465H469.185H443.535V37.5004V37.1004H443.135H440.071H439.671V37.5004V58.2465H426.586H426.186V58.6465V61.7111V62.1111H426.586H439.671V119.633C439.671 127.71 441.167 133.28 444.531 136.821C447.9 140.369 453.055 141.792 460.144 141.792H469.185ZM565.793 113.414L565.868 112.95H565.398H562.333H561.992L561.938 113.288C559.371 129.444 545.637 139.306 527.396 139.306C518.208 139.306 509.231 136.383 502.498 130.199C495.841 124.083 491.342 114.748 491.029 101.798H565.245H565.623L565.644 101.42C565.798 98.6515 565.798 97.1091 565.798 93.1308V93.1237C565.798 75.61 552.922 57.1738 527.396 57.1738C515.81 57.1738 505.742 61.1535 498.57 68.519C491.399 75.8845 487.156 86.6022 487.156 100.019C487.156 113.436 491.399 124.154 498.57 131.519C505.742 138.885 515.81 142.865 527.396 142.865C538.199 142.865 547.101 139.816 553.657 134.599C560.213 129.381 564.399 122.011 565.793 113.414ZM626.374 60.5788H626.774V60.1788V56.8077V56.4077H626.374C617.053 56.4077 609.611 58.2944 604.084 62.031C599.317 65.254 596.003 69.8341 594.135 75.6981V58.6465V58.2465H593.735H590.67H590.27V58.6465V141.392V141.792H590.67H593.735H594.135V141.392V92.2043C594.135 80.0426 598.197 72.1581 604.046 67.3055C609.909 62.4417 617.622 60.5788 624.994 60.5788H626.374ZM352.289 100.019C352.289 111.882 348.374 121.7 341.808 128.55C335.242 135.399 326.002 139.306 315.3 139.306C304.052 139.306 294.855 135.585 288.468 128.839C282.08 122.091 278.465 112.276 278.465 100.019C278.465 87.7621 282.08 77.947 288.468 71.1992C294.855 64.4537 304.052 60.732 315.3 60.732C326.002 60.732 335.242 64.639 341.808 71.4883C348.374 78.3383 352.289 88.1566 352.289 100.019ZM527.396 60.732C536.511 60.732 545.6 63.6187 552.215 69.7803C558.758 75.8745 562.921 85.2088 562.261 98.2401H491.022C491.112 85.3657 495.535 76.0308 502.211 69.8971C508.963 63.6941 518.054 60.732 527.396 60.732Z" fill="#323233" stroke="#323233" stroke-width="0.8"/>
</svg>
