<svg width="48" height="48" viewBox="0 0 48 48" fill="none" xmlns="http://www.w3.org/2000/svg">
<path d="M48 24C48 37.2548 37.2548 48 24 48C10.7452 48 0 37.2548 0 24C0 10.7452 10.7452 0 24 0C37.2548 0 48 10.7452 48 24Z" fill="#BD3935"/>
<path fill-rule="evenodd" clip-rule="evenodd" d="M24.8192 24.2888C24.8699 19.5627 27.9624 16.5358 32.2787 16.5821C35.5937 16.6176 37.8535 18.2974 38.8688 20.786C38.8461 20.786 38.8227 20.7917 38.7986 20.8035C37.8751 21.2542 33.1527 21.6914 32.3649 21.3396C32.1302 21.2348 32.067 21.1811 32.0745 21.0894L32.8564 19.6135L31.5051 18.899C31.3145 19.1849 30.7997 19.562 30.2803 19.9425C29.7849 20.3054 29.2853 20.6713 29.0585 20.9643C28.5938 21.5647 28.6266 22.4486 28.701 22.8154C29.306 24.2319 28.9933 25.5472 28.7999 26.3606C28.7576 26.5384 28.7211 26.6922 28.701 26.8178C28.6117 27.3782 28.8276 27.8851 28.9468 28.0686L31.5051 30.2369L32.8117 29.5445L32.1192 28.2187C31.9941 27.8585 32.2309 27.8184 32.3649 27.8435C33.2975 27.8951 34.2712 27.8854 35.1767 27.8764C36.8011 27.8603 38.2058 27.8463 38.7591 28.1923C37.6765 30.7353 35.3953 32.1616 32.1121 32.1264C27.7958 32.0801 24.7689 28.9876 24.8192 24.2888Z" fill="white"/>
<path d="M8.72729 24.1453C8.72729 28.842 11.6764 31.7091 15.9088 31.7091C19.4313 31.7091 21.8069 29.6338 22.5715 27.0125V31.518H23.0903V16.7727H22.5715V21.2782C21.8069 18.6568 19.4313 16.5815 15.9088 16.5815C11.6764 16.5815 8.72729 19.4487 8.72729 24.1453ZM22.5715 24.1453C22.5715 28.4051 19.7589 31.2176 15.9088 31.2176C11.8675 31.2176 9.27342 28.5416 9.27342 24.1453C9.27342 19.749 11.8675 17.0731 15.9088 17.0731C19.7589 17.0731 22.5715 19.8856 22.5715 24.1453Z" fill="white"/>
<path fill-rule="evenodd" clip-rule="evenodd" d="M12.0002 19.9288C11.0653 20.9251 10.5298 22.381 10.5298 24.2139C10.5298 26.0467 11.0653 27.5026 12.0002 28.4989C12.9341 29.4941 14.2824 30.0479 15.9432 30.0479C17.5196 30.0479 18.8756 29.4677 19.8381 28.4547C20.8009 27.4413 21.3796 25.9841 21.3796 24.2139C21.3796 22.4437 20.8009 20.9864 19.8381 19.973C18.8756 18.96 17.5196 18.3799 15.9432 18.3799C14.2824 18.3799 12.9341 18.9336 12.0002 19.9288ZM11.7581 19.7016C12.7644 18.6292 14.2058 18.0479 15.9432 18.0479C17.6042 18.0479 19.0494 18.6608 20.0788 19.7443C21.1078 20.8274 21.7116 22.3702 21.7116 24.2139C21.7116 26.0576 21.1078 27.6003 20.0788 28.6834C19.0494 29.7669 17.6042 30.3799 15.9432 30.3799C14.2058 30.3799 12.7644 29.7985 11.7581 28.7261C10.7529 27.6549 10.1978 26.1107 10.1978 24.2139C10.1978 22.317 10.7529 20.7729 11.7581 19.7016Z" fill="white"/>
<path d="M20.7273 23.123H22.0909V25.5776H20.7273V23.123Z" fill="white"/>
<path d="M15.0705 22.3672C14.8636 22.4587 14.5397 22.8513 14.5343 22.9534C14.5343 22.9534 14.2402 22.7843 14.5586 22.4938C14.877 22.2033 15.2774 22.2756 15.0705 22.3672Z" fill="white"/>
<path d="M15.6243 19.9257C15.1702 20.1066 14.9097 20.3831 14.8363 20.4987C14.878 20.3472 14.8552 20.1412 15.2267 19.8023C15.492 19.5602 16.1919 19.6996 15.6243 19.9257Z" fill="white"/>
<path d="M14.9489 24.2257C14.7467 24.507 14.6951 24.7706 14.6946 24.8673C14.6629 24.7616 14.6129 24.5011 14.6668 24.3049C14.7341 24.0598 15.2017 23.8742 14.9489 24.2257Z" fill="white"/>
<path fill-rule="evenodd" clip-rule="evenodd" d="M12.8812 21.8471C12.9981 21.546 13.3047 20.9066 13.5954 20.7581C13.9588 20.5724 13.6466 19.7877 12.569 21.0624C11.4914 22.3371 10.5002 24.8455 12.5739 27.6694C14.6476 30.4932 19.3659 29.1546 20.376 26.2887C19.3916 27.0732 16.9263 28.0937 14.9406 25.8994L15.6001 26.8048C15.6733 27.0135 15.6638 27.3203 15.0405 26.8777C14.2615 26.3244 13.1513 25.344 13.8025 23.5346C13.8097 23.3984 13.7593 23.2045 13.5002 23.5186C13.386 23.7687 13.1651 24.1258 13.1953 23.5538C13.233 22.8388 13.5676 22.2418 13.9472 21.7497C14.3268 21.2576 13.0162 22.1615 13.0054 22.3658C12.9946 22.5701 12.6024 22.3445 12.8812 21.8471ZM12.3118 24.2048C12.2043 23.9315 12.2335 23.38 12.49 23.1294C12.4307 23.4158 12.3121 24.0317 12.3118 24.2048ZM14.3505 27.507C13.8549 27.3272 13.0239 26.74 12.8832 25.637C13.0755 26.1423 13.6381 27.2236 14.3505 27.507ZM17.2366 28.7997C15.3408 29.1781 14.3523 28.8863 13.3094 27.927C13.4416 27.9931 13.6019 28.0816 13.7675 28.1731C14.1485 28.3836 14.5575 28.6096 14.7167 28.6131C14.7036 28.59 14.6537 28.5387 14.5981 28.4816C14.421 28.2996 14.1856 28.0577 14.8912 28.4738C15.3943 28.7704 15.7079 28.7752 16.6817 28.7899C16.8464 28.7924 17.03 28.7952 17.2366 28.7997Z" fill="white"/>
<path fill-rule="evenodd" clip-rule="evenodd" d="M17.2656 21.4363C17.7352 21.4363 18.1159 21.0556 18.1159 20.5859C18.1159 20.1163 17.7352 19.7356 17.2656 19.7356C16.796 19.7356 16.4153 20.1163 16.4153 20.5859C16.4153 21.0556 16.796 21.4363 17.2656 21.4363ZM17.2656 21.582C17.8157 21.582 18.2617 21.1361 18.2617 20.5859C18.2617 20.0358 17.8157 19.5898 17.2656 19.5898C16.7155 19.5898 16.2695 20.0358 16.2695 20.5859C16.2695 21.1361 16.7155 21.582 17.2656 21.582Z" fill="white"/>
<path fill-rule="evenodd" clip-rule="evenodd" d="M16.7838 20.2603C16.7346 20.37 16.7261 20.4848 16.7331 20.5541L16.588 20.5687C16.5789 20.4775 16.5898 20.3367 16.6508 20.2007C16.7128 20.0626 16.8272 19.9286 17.023 19.8608L17.0706 19.9986C16.9188 20.0511 16.8321 20.1528 16.7838 20.2603Z" fill="white"/>
<path fill-rule="evenodd" clip-rule="evenodd" d="M19.9219 22.813C20.235 22.813 20.4888 22.5592 20.4888 22.2461C20.4888 21.933 20.235 21.6792 19.9219 21.6792C19.6088 21.6792 19.355 21.933 19.355 22.2461C19.355 22.5592 19.6088 22.813 19.9219 22.813ZM19.9219 22.9102C20.2886 22.9102 20.5859 22.6128 20.5859 22.2461C20.5859 21.8793 20.2886 21.582 19.9219 21.582C19.5551 21.582 19.2578 21.8793 19.2578 22.2461C19.2578 22.6128 19.5551 22.9102 19.9219 22.9102Z" fill="white"/>
<path fill-rule="evenodd" clip-rule="evenodd" d="M19.812 21.8747C19.5778 21.9413 19.5435 22.1318 19.5537 22.2156L19.4573 22.2274C19.4431 22.1113 19.4918 21.8646 19.7855 21.7812L19.812 21.8747Z" fill="white"/>
<path fill-rule="evenodd" clip-rule="evenodd" d="M17.7637 26.0604C18.3116 26.0604 18.7557 25.6162 18.7557 25.0684C18.7557 24.5205 18.3116 24.0763 17.7637 24.0763C17.2158 24.0763 16.7716 24.5205 16.7716 25.0684C16.7716 25.6162 17.2158 26.0604 17.7637 26.0604ZM17.7637 26.2305C18.4055 26.2305 18.9258 25.7102 18.9258 25.0684C18.9258 24.4265 18.4055 23.9062 17.7637 23.9062C17.1219 23.9062 16.6016 24.4265 16.6016 25.0684C16.6016 25.7102 17.1219 26.2305 17.7637 26.2305Z" fill="white"/>
<path fill-rule="evenodd" clip-rule="evenodd" d="M17.2017 24.6888C17.1442 24.8167 17.1344 24.9506 17.1425 25.0315L16.9733 25.0484C16.9626 24.9421 16.9753 24.7778 17.0465 24.6191C17.1188 24.458 17.2523 24.3017 17.4807 24.2227L17.5363 24.3834C17.3592 24.4447 17.258 24.5633 17.2017 24.6888Z" fill="white"/>
<path fill-rule="evenodd" clip-rule="evenodd" d="M17.4555 25.7021C17.527 25.748 17.6066 25.7658 17.6547 25.7682L17.6465 25.938C17.5728 25.9345 17.4635 25.9093 17.3636 25.8452C17.2615 25.7797 17.1684 25.6725 17.1379 25.5092L17.3051 25.478C17.3256 25.588 17.3862 25.6577 17.4555 25.7021Z" fill="white"/>
</svg>
