<svg id="Group_47_3_" data-name="Group 47 (3)" xmlns="http://www.w3.org/2000/svg" width="299.451" height="71.949" viewBox="0 0 299.451 71.949">
  <g id="Group_75" data-name="Group 75">
    <path id="Path_280" data-name="Path 280" d="M637.972,67.326c0,7.8,4.976,12.731,11.969,12.731,6.1,0,10.086-3.407,11.341-8.293h-4.393c-.9,3.093-3.317,4.841-6.948,4.841-4.483,0-7.8-3.183-7.8-9.279,0-6.007,3.317-9.19,7.8-9.19,3.631,0,6.1,1.883,6.948,4.841h4.393c-1.255-5.155-5.245-8.293-11.341-8.293C642.948,54.685,637.972,59.616,637.972,67.326Z" transform="translate(-451.334 -38.687)" fill="#363435"/>
    <path id="Path_281" data-name="Path 281" d="M734.113,67.281c0,7.621,5.065,12.776,11.61,12.776a10.26,10.26,0,0,0,9.19-4.976v4.572h4.124V55.088h-4.124v4.483a10.2,10.2,0,0,0-9.145-4.886C739.178,54.685,734.113,59.616,734.113,67.281Zm20.8.045c0,5.783-3.855,9.145-8.338,9.145s-8.293-3.407-8.293-9.19,3.81-9.055,8.293-9.055S754.913,61.633,754.913,67.326Z" transform="translate(-519.349 -38.687)" fill="#363435"/>
    <path id="Path_282" data-name="Path 282" d="M850.018,66.187c0-5.693,2.959-7.441,6.859-7.441h1.076V54.532c-3.9,0-6.545,1.7-7.935,4.438V54.98h-4.079V79.545h4.079Z" transform="translate(-598.461 -38.578)" fill="#363435"/>
    <path id="Path_283" data-name="Path 283" d="M912.926,58.137c4.214,0,7.8,2.645,7.755,7.441h-15.51C905.619,60.781,908.936,58.137,912.926,58.137ZM924.4,72.078h-4.393c-.9,2.645-3.228,4.527-6.9,4.527-4.169,0-7.666-2.734-7.98-7.71H924.76a22.063,22.063,0,0,0,.135-2.465c0-6.724-4.662-11.745-11.79-11.745-7.172,0-12.148,4.886-12.148,12.641,0,7.8,5.155,12.731,12.148,12.731C919.2,80.057,923.147,76.561,924.4,72.078Z" transform="translate(-637.384 -38.687)" fill="#363435"/>
  </g>
  <path id="Path_284" data-name="Path 284" d="M993.264,27.017a4.791,4.791,0,1,0,4.792,4.791A4.791,4.791,0,0,0,993.264,27.017ZM988.1,31.807a5.164,5.164,0,1,1,5.164,5.164A5.164,5.164,0,0,1,988.1,31.807Z" transform="translate(-699.477 -19.343)" fill="#484645" stroke="#484645" stroke-width="1" fill-rule="evenodd"/>
  <path id="Path_285" data-name="Path 285" d="M1001.514,35.914c0,.573-.345.992-1.115.992h-.951V34.943h.945C1001.19,34.943,1001.514,35.321,1001.514,35.914Zm-2.537-1.369v4.716h.472v-1.97h.872l1.167,1.97h.565l-1.214-2A1.3,1.3,0,0,0,1002,35.914c0-.776-.512-1.369-1.606-1.369Z" transform="translate(-706.728 -24.439)" fill="#484645" stroke="#484645" stroke-width="1"/>
  <g id="Group_74" data-name="Group 74" transform="translate(104.147 53.244)" opacity="0.8">
    <path id="Path_286" data-name="Path 286" d="M356.052,186.242a2.17,2.17,0,0,0,2.287,2.712,3.282,3.282,0,0,0,2.889-1.6h-.875a2.226,2.226,0,0,1-1.9.97,1.6,1.6,0,0,1-1.653-2.085,2.466,2.466,0,0,1,2.431-2.093,1.448,1.448,0,0,1,1.541.978h.875a2.132,2.132,0,0,0-2.3-1.612A3.375,3.375,0,0,0,356.052,186.242Z" transform="translate(-356 -183.072)" fill="#363435"/>
    <path id="Path_287" data-name="Path 287" d="M381.811,189.552a1.678,1.678,0,0,0,1.685,2.177,2.3,2.3,0,0,0,1.806-.848l-.152.779h.738l.778-4.186h-.738l-.145.764a1.483,1.483,0,0,0-1.477-.833A2.547,2.547,0,0,0,381.811,189.552Zm3.731.008a1.837,1.837,0,0,1-1.782,1.558,1.193,1.193,0,0,1-1.2-1.566,1.809,1.809,0,0,1,1.773-1.543A1.19,1.19,0,0,1,385.542,189.559Z" transform="translate(-374.228 -185.824)" fill="#363435"/>
    <path id="Path_288" data-name="Path 288" d="M406.165,189.365a1.359,1.359,0,0,1,1.46-1.268h.192l.137-.718a1.819,1.819,0,0,0-1.581.871l.144-.795h-.73l-.778,4.186h.731Z" transform="translate(-390.672 -185.805)" fill="#363435"/>
    <path id="Path_289" data-name="Path 289" d="M420.18,187.892h.73l.778-4.186h-.73Zm1.276-4.866a.6.6,0,0,0,.578-.474.386.386,0,0,0-.4-.474.6.6,0,0,0-.578.474A.386.386,0,0,0,421.456,183.025Z" transform="translate(-401.404 -182.055)" fill="#363435"/>
    <path id="Path_290" data-name="Path 290" d="M435.086,191.642h.722l.457-2.468a1.361,1.361,0,0,0-1.46-1.8,2,2,0,0,0-1.541.68l.112-.6h-.73l-.778,4.186h.73l.434-2.33v.016a1.482,1.482,0,0,1,1.509-1.345c.738,0,1.139.435.987,1.291Z" transform="translate(-409.673 -185.805)" fill="#363435"/>
    <path id="Path_291" data-name="Path 291" d="M454.094,189.552a1.68,1.68,0,0,0,1.693,2.177,2.3,2.3,0,0,0,1.8-.856l-.16.879a1.593,1.593,0,0,1-1.621,1.367c-.722,0-1.18-.344-1.244-.848h-.73c-.024.894.706,1.451,1.862,1.451a2.409,2.409,0,0,0,2.464-1.971l.795-4.278h-.738l-.145.764a1.476,1.476,0,0,0-1.477-.833A2.547,2.547,0,0,0,454.094,189.552Zm3.731.008a1.837,1.837,0,0,1-1.781,1.558,1.193,1.193,0,0,1-1.2-1.566,1.808,1.808,0,0,1,1.773-1.543A1.19,1.19,0,0,1,457.826,189.559Z" transform="translate(-425.209 -185.824)" fill="#363435"/>
    <path id="Path_292" data-name="Path 292" d="M490.935,188.28h.73l.433-2.33v.016a1.482,1.482,0,0,1,1.509-1.345c.738,0,1.14.435.987,1.291l-.441,2.368h.722l.458-2.468a1.349,1.349,0,0,0-1.42-1.8,2.074,2.074,0,0,0-1.581.68l.385-2.07h-.73Z" transform="translate(-451.46 -182.444)" fill="#363435"/>
    <path id="Path_293" data-name="Path 293" d="M513.695,189.552a1.678,1.678,0,0,0,1.685,2.177,2.3,2.3,0,0,0,1.806-.848l-.152.779h.738l.778-4.186h-.738l-.144.764a1.483,1.483,0,0,0-1.477-.833A2.547,2.547,0,0,0,513.695,189.552Zm3.731.008a1.837,1.837,0,0,1-1.782,1.558,1.193,1.193,0,0,1-1.2-1.566,1.809,1.809,0,0,1,1.773-1.543A1.19,1.19,0,0,1,517.426,189.559Z" transform="translate(-467.53 -185.824)" fill="#363435"/>
    <path id="Path_294" data-name="Path 294" d="M540.111,191.642h.722l.458-2.468a1.361,1.361,0,0,0-1.461-1.8,2,2,0,0,0-1.541.68l.112-.6h-.73l-.779,4.186h.731l.433-2.33v.016a1.482,1.482,0,0,1,1.509-1.345c.738,0,1.139.435.987,1.291Z" transform="translate(-483.973 -185.805)" fill="#363435"/>
    <path id="Path_295" data-name="Path 295" d="M559.653,186.172a1.68,1.68,0,0,0,1.693,2.177,2.256,2.256,0,0,0,1.8-.856l-.152.787h.738l1.051-5.653h-.738l-.409,2.215a1.582,1.582,0,0,0-1.477-.817A2.549,2.549,0,0,0,559.653,186.172Zm3.732.008a1.837,1.837,0,0,1-1.782,1.558,1.193,1.193,0,0,1-1.2-1.566,1.808,1.808,0,0,1,1.773-1.543A1.19,1.19,0,0,1,563.385,186.179Z" transform="translate(-500.043 -182.444)" fill="#363435"/>
    <path id="Path_296" data-name="Path 296" d="M586.106,190.522c0-1.314-2.215-1.039-2.215-1.94,0-.382.377-.619.9-.619.57,0,.939.3.883.757h.7c.1-.787-.578-1.314-1.533-1.314-.979,0-1.677.481-1.677,1.2,0,1.367,2.223,1.085,2.223,1.94,0,.4-.425.627-1,.627-.61,0-.931-.313-.891-.741h-.714c-.1.794.61,1.3,1.565,1.3C585.352,191.729,586.106,191.27,586.106,190.522Z" transform="translate(-516.427 -185.824)" fill="#363435"/>
    <path id="Path_297" data-name="Path 297" d="M615.7,187.836h.73l.674-3.613h.923l.1-.573H617.2l.056-.3c.1-.542.361-.771,1.019-.771l.1-.581c-1.132,0-1.685.42-1.862,1.352l-.056.3H615.9l-.1.573h.562Z" transform="translate(-539.722 -182)" fill="#363435"/>
    <path id="Path_298" data-name="Path 298" d="M633.975,189.154a1.723,1.723,0,0,0-1.886-1.749,2.576,2.576,0,0,0-2.648,2.582,1.7,1.7,0,0,0,1.862,1.742A2.59,2.59,0,0,0,633.975,189.154Zm-3.78.8a1.854,1.854,0,0,1,1.79-1.963,1.141,1.141,0,0,1,1.236,1.2,1.887,1.887,0,0,1-1.83,1.948A1.114,1.114,0,0,1,630.2,189.957Z" transform="translate(-549.446 -185.824)" fill="#363435"/>
    <path id="Path_299" data-name="Path 299" d="M652.834,189.365a1.359,1.359,0,0,1,1.461-1.268h.193l.136-.718a1.819,1.819,0,0,0-1.581.871l.144-.795h-.73l-.778,4.186h.73Z" transform="translate(-565.178 -185.805)" fill="#363435"/>
    <path id="Path_300" data-name="Path 300" d="M681.255,191.78l-1.244,2.017h.762l3.788-6.157h-.755l-2,3.377-.746-3.377h-.811Z" transform="translate(-585.222 -185.99)" fill="#363435"/>
    <path id="Path_301" data-name="Path 301" d="M705.132,189.154a1.722,1.722,0,0,0-1.886-1.749,2.575,2.575,0,0,0-2.648,2.582,1.7,1.7,0,0,0,1.862,1.742A2.59,2.59,0,0,0,705.132,189.154Zm-3.78.8a1.854,1.854,0,0,1,1.79-1.963,1.141,1.141,0,0,1,1.236,1.2,1.887,1.887,0,0,1-1.83,1.948A1.114,1.114,0,0,1,701.352,189.957Z" transform="translate(-599.787 -185.824)" fill="#363435"/>
    <path id="Path_302" data-name="Path 302" d="M728.1,187.64h-.73l-.434,2.322v-.023a1.464,1.464,0,0,1-1.5,1.345c-.738,0-1.139-.436-.987-1.283l.433-2.361h-.722l-.457,2.452a1.373,1.373,0,0,0,1.477,1.8,2,2,0,0,0,1.525-.672l-.112.611h.73Z" transform="translate(-616.1 -185.99)" fill="#363435"/>
    <path id="Path_303" data-name="Path 303" d="M746.474,189.365a1.359,1.359,0,0,1,1.461-1.268h.193l.137-.718a1.819,1.819,0,0,0-1.581.871l.144-.795h-.73l-.778,4.186h.73Z" transform="translate(-631.424 -185.805)" fill="#363435"/>
    <path id="Path_304" data-name="Path 304" d="M773.866,189.559a1.668,1.668,0,0,0,1.749,2.17,2.423,2.423,0,0,0,2.287-1.413h-.787a1.458,1.458,0,0,1-1.388.825c-.8,0-1.3-.542-1.108-1.581a1.72,1.72,0,0,1,1.685-1.566c.65,0,1.035.321,1.091.825h.786c-.064-.879-.674-1.413-1.766-1.413A2.561,2.561,0,0,0,773.866,189.559Z" transform="translate(-651.586 -185.824)" fill="#363435"/>
    <path id="Path_305" data-name="Path 305" d="M795.2,188.28h.73l1.051-5.653h-.73Z" transform="translate(-666.711 -182.444)" fill="#363435"/>
    <path id="Path_306" data-name="Path 306" d="M811.666,189.154a1.722,1.722,0,0,0-1.886-1.749,2.575,2.575,0,0,0-2.648,2.582,1.7,1.7,0,0,0,1.862,1.742A2.59,2.59,0,0,0,811.666,189.154Zm-3.78.8a1.854,1.854,0,0,1,1.789-1.963,1.141,1.141,0,0,1,1.236,1.2,1.887,1.887,0,0,1-1.83,1.948A1.114,1.114,0,0,1,807.886,189.957Z" transform="translate(-675.154 -185.824)" fill="#363435"/>
    <path id="Path_307" data-name="Path 307" d="M830.378,188.132c-.152.84.233,1.146,1.011,1.146h.658l.112-.588h-.538c-.449,0-.586-.145-.506-.558l.458-2.467h1.147l.1-.573h-1.139l.193-1.054h-.738l-.193,1.054h-.57l-.1.573h.562Z" transform="translate(-691.526 -183.441)" fill="#363435"/>
    <path id="Path_308" data-name="Path 308" d="M844.3,188.28h.73l.434-2.33v.016a1.482,1.482,0,0,1,1.509-1.345c.738,0,1.139.435.987,1.291l-.441,2.368h.722l.457-2.468a1.349,1.349,0,0,0-1.42-1.8,2.074,2.074,0,0,0-1.581.68l.385-2.07h-.73Z" transform="translate(-701.447 -182.444)" fill="#363435"/>
    <path id="Path_309" data-name="Path 309" d="M869.494,187.993a1.039,1.039,0,0,1,1.147,1.306h-2.784A1.69,1.69,0,0,1,869.494,187.993Zm1.613,2.376h-.787a1.49,1.49,0,0,1-1.372.771,1.1,1.1,0,0,1-1.188-1.337h3.515a2.584,2.584,0,0,0,.1-.412,1.6,1.6,0,0,0-1.749-1.986,2.56,2.56,0,0,0-2.576,2.154,1.687,1.687,0,0,0,1.782,2.17A2.46,2.46,0,0,0,871.107,190.369Z" transform="translate(-717.514 -185.824)" fill="#363435"/>
    <path id="Path_310" data-name="Path 310" d="M891.984,190.522c0-1.314-2.215-1.039-2.215-1.94,0-.382.377-.619.9-.619.57,0,.939.3.883.757h.7c.1-.787-.578-1.314-1.533-1.314-.979,0-1.677.481-1.677,1.2,0,1.367,2.223,1.085,2.223,1.94,0,.4-.425.627-1,.627-.61,0-.931-.313-.891-.741h-.714c-.1.794.61,1.3,1.565,1.3C891.23,191.729,891.984,191.27,891.984,190.522Z" transform="translate(-732.821 -185.824)" fill="#363435"/>
    <path id="Path_311" data-name="Path 311" d="M356.052,186.242a2.17,2.17,0,0,0,2.287,2.712,3.282,3.282,0,0,0,2.889-1.6h-.875a2.226,2.226,0,0,1-1.9.97,1.6,1.6,0,0,1-1.653-2.085,2.466,2.466,0,0,1,2.431-2.093,1.448,1.448,0,0,1,1.541.978h.875a2.132,2.132,0,0,0-2.3-1.612A3.375,3.375,0,0,0,356.052,186.242Z" transform="translate(-356 -183.072)" fill="none" stroke="#363435" stroke-width="0.8"/>
    <path id="Path_312" data-name="Path 312" d="M381.811,189.552a1.678,1.678,0,0,0,1.685,2.177,2.3,2.3,0,0,0,1.806-.848l-.152.779h.738l.778-4.186h-.738l-.145.764a1.483,1.483,0,0,0-1.477-.833A2.547,2.547,0,0,0,381.811,189.552Zm3.731.008a1.837,1.837,0,0,1-1.782,1.558,1.193,1.193,0,0,1-1.2-1.566,1.809,1.809,0,0,1,1.773-1.543A1.19,1.19,0,0,1,385.542,189.559Z" transform="translate(-374.228 -185.824)" fill="none" stroke="#363435" stroke-width="0.8"/>
    <path id="Path_313" data-name="Path 313" d="M406.165,189.365a1.359,1.359,0,0,1,1.46-1.268h.192l.137-.718a1.819,1.819,0,0,0-1.581.871l.144-.795h-.73l-.778,4.186h.731Z" transform="translate(-390.672 -185.805)" fill="none" stroke="#363435" stroke-width="0.8"/>
    <path id="Path_314" data-name="Path 314" d="M420.18,187.892h.73l.778-4.186h-.73Zm1.276-4.866a.6.6,0,0,0,.578-.474.386.386,0,0,0-.4-.474.6.6,0,0,0-.578.474A.386.386,0,0,0,421.456,183.025Z" transform="translate(-401.404 -182.055)" fill="none" stroke="#363435" stroke-width="0.8"/>
    <path id="Path_315" data-name="Path 315" d="M435.086,191.642h.722l.457-2.468a1.361,1.361,0,0,0-1.46-1.8,2,2,0,0,0-1.541.68l.112-.6h-.73l-.778,4.186h.73l.434-2.33v.016a1.482,1.482,0,0,1,1.509-1.345c.738,0,1.139.435.987,1.291Z" transform="translate(-409.673 -185.805)" fill="none" stroke="#363435" stroke-width="0.8"/>
    <path id="Path_316" data-name="Path 316" d="M454.094,189.552a1.68,1.68,0,0,0,1.693,2.177,2.3,2.3,0,0,0,1.8-.856l-.16.879a1.593,1.593,0,0,1-1.621,1.367c-.722,0-1.18-.344-1.244-.848h-.73c-.024.894.706,1.451,1.862,1.451a2.409,2.409,0,0,0,2.464-1.971l.795-4.278h-.738l-.145.764a1.476,1.476,0,0,0-1.477-.833A2.547,2.547,0,0,0,454.094,189.552Zm3.731.008a1.837,1.837,0,0,1-1.781,1.558,1.193,1.193,0,0,1-1.2-1.566,1.808,1.808,0,0,1,1.773-1.543A1.19,1.19,0,0,1,457.826,189.559Z" transform="translate(-425.209 -185.824)" fill="none" stroke="#363435" stroke-width="0.8"/>
    <path id="Path_317" data-name="Path 317" d="M490.935,188.28h.73l.433-2.33v.016a1.482,1.482,0,0,1,1.509-1.345c.738,0,1.14.435.987,1.291l-.441,2.368h.722l.458-2.468a1.349,1.349,0,0,0-1.42-1.8,2.074,2.074,0,0,0-1.581.68l.385-2.07h-.73Z" transform="translate(-451.46 -182.444)" fill="none" stroke="#363435" stroke-width="0.8"/>
    <path id="Path_318" data-name="Path 318" d="M513.695,189.552a1.678,1.678,0,0,0,1.685,2.177,2.3,2.3,0,0,0,1.806-.848l-.152.779h.738l.778-4.186h-.738l-.144.764a1.483,1.483,0,0,0-1.477-.833A2.547,2.547,0,0,0,513.695,189.552Zm3.731.008a1.837,1.837,0,0,1-1.782,1.558,1.193,1.193,0,0,1-1.2-1.566,1.809,1.809,0,0,1,1.773-1.543A1.19,1.19,0,0,1,517.426,189.559Z" transform="translate(-467.53 -185.824)" fill="none" stroke="#363435" stroke-width="0.8"/>
    <path id="Path_319" data-name="Path 319" d="M540.111,191.642h.722l.458-2.468a1.361,1.361,0,0,0-1.461-1.8,2,2,0,0,0-1.541.68l.112-.6h-.73l-.779,4.186h.731l.433-2.33v.016a1.482,1.482,0,0,1,1.509-1.345c.738,0,1.139.435.987,1.291Z" transform="translate(-483.973 -185.805)" fill="none" stroke="#363435" stroke-width="0.8"/>
    <path id="Path_320" data-name="Path 320" d="M559.653,186.172a1.68,1.68,0,0,0,1.693,2.177,2.256,2.256,0,0,0,1.8-.856l-.152.787h.738l1.051-5.653h-.738l-.409,2.215a1.582,1.582,0,0,0-1.477-.817A2.549,2.549,0,0,0,559.653,186.172Zm3.732.008a1.837,1.837,0,0,1-1.782,1.558,1.193,1.193,0,0,1-1.2-1.566,1.808,1.808,0,0,1,1.773-1.543A1.19,1.19,0,0,1,563.385,186.179Z" transform="translate(-500.043 -182.444)" fill="none" stroke="#363435" stroke-width="0.8"/>
    <path id="Path_321" data-name="Path 321" d="M586.106,190.522c0-1.314-2.215-1.039-2.215-1.94,0-.382.377-.619.9-.619.57,0,.939.3.883.757h.7c.1-.787-.578-1.314-1.533-1.314-.979,0-1.677.481-1.677,1.2,0,1.367,2.223,1.085,2.223,1.94,0,.4-.425.627-1,.627-.61,0-.931-.313-.891-.741h-.714c-.1.794.61,1.3,1.565,1.3C585.352,191.729,586.106,191.27,586.106,190.522Z" transform="translate(-516.427 -185.824)" fill="none" stroke="#363435" stroke-width="0.8"/>
    <path id="Path_322" data-name="Path 322" d="M615.7,187.836h.73l.674-3.613h.923l.1-.573H617.2l.056-.3c.1-.542.361-.771,1.019-.771l.1-.581c-1.132,0-1.685.42-1.862,1.352l-.056.3H615.9l-.1.573h.562Z" transform="translate(-539.722 -182)" fill="none" stroke="#363435" stroke-width="0.8"/>
    <path id="Path_323" data-name="Path 323" d="M633.975,189.154a1.723,1.723,0,0,0-1.886-1.749,2.576,2.576,0,0,0-2.648,2.582,1.7,1.7,0,0,0,1.862,1.742A2.59,2.59,0,0,0,633.975,189.154Zm-3.78.8a1.854,1.854,0,0,1,1.79-1.963,1.141,1.141,0,0,1,1.236,1.2,1.887,1.887,0,0,1-1.83,1.948A1.114,1.114,0,0,1,630.2,189.957Z" transform="translate(-549.446 -185.824)" fill="none" stroke="#363435" stroke-width="0.8"/>
    <path id="Path_324" data-name="Path 324" d="M652.834,189.365a1.359,1.359,0,0,1,1.461-1.268h.193l.136-.718a1.819,1.819,0,0,0-1.581.871l.144-.795h-.73l-.778,4.186h.73Z" transform="translate(-565.178 -185.805)" fill="none" stroke="#363435" stroke-width="0.8"/>
    <path id="Path_325" data-name="Path 325" d="M681.255,191.78l-1.244,2.017h.762l3.788-6.157h-.755l-2,3.377-.746-3.377h-.811Z" transform="translate(-585.222 -185.99)" fill="none" stroke="#363435" stroke-width="0.8"/>
    <path id="Path_326" data-name="Path 326" d="M705.132,189.154a1.722,1.722,0,0,0-1.886-1.749,2.575,2.575,0,0,0-2.648,2.582,1.7,1.7,0,0,0,1.862,1.742A2.59,2.59,0,0,0,705.132,189.154Zm-3.78.8a1.854,1.854,0,0,1,1.79-1.963,1.141,1.141,0,0,1,1.236,1.2,1.887,1.887,0,0,1-1.83,1.948A1.114,1.114,0,0,1,701.352,189.957Z" transform="translate(-599.787 -185.824)" fill="none" stroke="#363435" stroke-width="0.8"/>
    <path id="Path_327" data-name="Path 327" d="M728.1,187.64h-.73l-.434,2.322v-.023a1.464,1.464,0,0,1-1.5,1.345c-.738,0-1.139-.436-.987-1.283l.433-2.361h-.722l-.457,2.452a1.373,1.373,0,0,0,1.477,1.8,2,2,0,0,0,1.525-.672l-.112.611h.73Z" transform="translate(-616.1 -185.99)" fill="none" stroke="#363435" stroke-width="0.8"/>
    <path id="Path_328" data-name="Path 328" d="M746.474,189.365a1.359,1.359,0,0,1,1.461-1.268h.193l.137-.718a1.819,1.819,0,0,0-1.581.871l.144-.795h-.73l-.778,4.186h.73Z" transform="translate(-631.424 -185.805)" fill="none" stroke="#363435" stroke-width="0.8"/>
    <path id="Path_329" data-name="Path 329" d="M773.866,189.559a1.668,1.668,0,0,0,1.749,2.17,2.423,2.423,0,0,0,2.287-1.413h-.787a1.458,1.458,0,0,1-1.388.825c-.8,0-1.3-.542-1.108-1.581a1.72,1.72,0,0,1,1.685-1.566c.65,0,1.035.321,1.091.825h.786c-.064-.879-.674-1.413-1.766-1.413A2.561,2.561,0,0,0,773.866,189.559Z" transform="translate(-651.586 -185.824)" fill="none" stroke="#363435" stroke-width="0.8"/>
    <path id="Path_330" data-name="Path 330" d="M795.2,188.28h.73l1.051-5.653h-.73Z" transform="translate(-666.711 -182.444)" fill="none" stroke="#363435" stroke-width="0.8"/>
    <path id="Path_331" data-name="Path 331" d="M811.666,189.154a1.722,1.722,0,0,0-1.886-1.749,2.575,2.575,0,0,0-2.648,2.582,1.7,1.7,0,0,0,1.862,1.742A2.59,2.59,0,0,0,811.666,189.154Zm-3.78.8a1.854,1.854,0,0,1,1.789-1.963,1.141,1.141,0,0,1,1.236,1.2,1.887,1.887,0,0,1-1.83,1.948A1.114,1.114,0,0,1,807.886,189.957Z" transform="translate(-675.154 -185.824)" fill="none" stroke="#363435" stroke-width="0.8"/>
    <path id="Path_332" data-name="Path 332" d="M830.378,188.132c-.152.84.233,1.146,1.011,1.146h.658l.112-.588h-.538c-.449,0-.586-.145-.506-.558l.458-2.467h1.147l.1-.573h-1.139l.193-1.054h-.738l-.193,1.054h-.57l-.1.573h.562Z" transform="translate(-691.526 -183.441)" fill="none" stroke="#363435" stroke-width="0.8"/>
    <path id="Path_333" data-name="Path 333" d="M844.3,188.28h.73l.434-2.33v.016a1.482,1.482,0,0,1,1.509-1.345c.738,0,1.139.435.987,1.291l-.441,2.368h.722l.457-2.468a1.349,1.349,0,0,0-1.42-1.8,2.074,2.074,0,0,0-1.581.68l.385-2.07h-.73Z" transform="translate(-701.447 -182.444)" fill="none" stroke="#363435" stroke-width="0.8"/>
    <path id="Path_334" data-name="Path 334" d="M869.494,187.993a1.039,1.039,0,0,1,1.147,1.306h-2.784A1.69,1.69,0,0,1,869.494,187.993Zm1.613,2.376h-.787a1.49,1.49,0,0,1-1.372.771,1.1,1.1,0,0,1-1.188-1.337h3.515a2.584,2.584,0,0,0,.1-.412,1.6,1.6,0,0,0-1.749-1.986,2.56,2.56,0,0,0-2.576,2.154,1.687,1.687,0,0,0,1.782,2.17A2.46,2.46,0,0,0,871.107,190.369Z" transform="translate(-717.514 -185.824)" fill="none" stroke="#363435" stroke-width="0.8"/>
    <path id="Path_335" data-name="Path 335" d="M891.984,190.522c0-1.314-2.215-1.039-2.215-1.94,0-.382.377-.619.9-.619.57,0,.939.3.883.757h.7c.1-.787-.578-1.314-1.533-1.314-.979,0-1.677.481-1.677,1.2,0,1.367,2.223,1.085,2.223,1.94,0,.4-.425.627-1,.627-.61,0-.931-.313-.891-.741h-.714c-.1.794.61,1.3,1.565,1.3C891.23,191.729,891.984,191.27,891.984,190.522Z" transform="translate(-732.821 -185.824)" fill="none" stroke="#363435" stroke-width="0.8"/>
  </g>
  <path id="Path_336" data-name="Path 336" d="M71.949,35.974A35.974,35.974,0,1,1,35.974,0,35.974,35.974,0,0,1,71.949,35.974Z" fill="#b52421"/>
  <path id="Path_337" data-name="Path 337" d="M127.163,96.513c.076-7.084,4.711-11.621,11.181-11.552,4.969.053,8.356,2.571,9.878,6.3a.238.238,0,0,0-.105.026c-1.384.676-8.463,1.331-9.644.8-.352-.157-.446-.238-.435-.375L139.21,89.5l-2.026-1.071A9.006,9.006,0,0,1,135.349,90a10.564,10.564,0,0,0-1.831,1.531,3.738,3.738,0,0,0-.536,2.775,8.131,8.131,0,0,1,.148,5.314c-.063.267-.118.5-.148.685a2.9,2.9,0,0,0,.368,1.875l3.835,3.25,1.959-1.038L138.1,102.4c-.188-.54.167-.6.368-.563,1.4.078,2.858.063,4.215.049,2.435-.024,4.54-.045,5.37.474-1.623,3.812-5.042,5.95-9.963,5.9C131.624,108.191,127.087,103.556,127.163,96.513Z" transform="translate(-89.961 -60.105)" fill="#fff" fill-rule="evenodd"/>
  <path id="Path_338" data-name="Path 338" d="M44.716,96.3c0,7.04,4.42,11.337,10.765,11.337,5.28,0,8.841-3.111,9.987-7.04v6.753h.778v-22.1h-.778V92c-1.146-3.929-4.707-7.04-9.987-7.04C49.136,84.96,44.716,89.258,44.716,96.3Zm20.751,0c0,6.385-4.216,10.6-9.987,10.6-6.058,0-9.946-4.011-9.946-10.6s3.888-10.6,9.946-10.6C61.252,85.7,65.467,89.913,65.467,96.3Z" transform="translate(-31.634 -60.105)" fill="#fff"/>
  <path id="Path_339" data-name="Path 339" d="M54.952,95.293a10.461,10.461,0,0,0,0,12.846,8.5,8.5,0,0,0,11.748-.066,9.9,9.9,0,0,0,0-12.714,8.5,8.5,0,0,0-11.748-.066Zm-.363-.341a9,9,0,0,1,12.472.064,10.393,10.393,0,0,1,0,13.4,9,9,0,0,1-12.472.064,10.949,10.949,0,0,1,0-13.527Z" transform="translate(-36.965 -65.421)" fill="#fff" fill-rule="evenodd"/>
  <path id="Path_340" data-name="Path 340" d="M106.2,118.478h2.044v3.679H106.2Z" transform="translate(-75.132 -83.817)" fill="#fff"/>
  <path id="Path_341" data-name="Path 341" d="M74.824,114.311a2.038,2.038,0,0,0-.8.879s-.441-.253.036-.689S75.134,114.174,74.824,114.311Z" transform="translate(-52.234 -80.784)" fill="#fff"/>
  <path id="Path_342" data-name="Path 342" d="M77.2,101.189a2.632,2.632,0,0,0-1.181.859A1.539,1.539,0,0,1,76.6,101C77,100.641,78.049,100.85,77.2,101.189Z" transform="translate(-53.778 -71.321)" fill="#fff"/>
  <path id="Path_343" data-name="Path 343" d="M75.485,123.422a1.888,1.888,0,0,0-.381.962,1.764,1.764,0,0,1-.042-.843C75.163,123.173,75.864,122.9,75.485,123.422Z" transform="translate(-53.078 -87.109)" fill="#fff"/>
  <path id="Path_344" data-name="Path 344" d="M60.493,106.51a3.763,3.763,0,0,1,1.071-1.632c.545-.278.077-1.455-1.539.456s-3.1,5.671.007,9.9,10.181,2.226,11.695-2.07a5.829,5.829,0,0,1-8.147-.583l.988,1.357c.11.313.1.773-.839.109-1.168-.829-2.832-2.3-1.856-5.011.011-.2-.065-.495-.453-.024-.171.375-.5.91-.457.053a4.866,4.866,0,0,1,1.127-2.7c.569-.738-1.4.617-1.412.924S60.075,107.255,60.493,106.51Zm-.854,3.534a1.737,1.737,0,0,1,.267-1.612A14.862,14.862,0,0,0,59.64,110.044Zm3.056,4.95a3.489,3.489,0,0,1-2.2-2.8C60.784,112.948,61.628,114.569,62.7,114.994Zm4.326,1.938c-2.842.567-4.323.13-5.887-1.308.2.1.438.232.687.369a5.571,5.571,0,0,0,1.423.659,1.72,1.72,0,0,0-.178-.2c-.265-.273-.618-.635.439-.012a4.569,4.569,0,0,0,2.684.474C66.437,116.92,66.712,116.924,67.022,116.931Z" transform="translate(-41.185 -73.762)" fill="#fff" fill-rule="evenodd"/>
  <path id="Path_345" data-name="Path 345" d="M84.853,103.14a1.275,1.275,0,1,0-1.275-1.275A1.275,1.275,0,0,0,84.853,103.14Zm0,.219a1.493,1.493,0,1,0-1.493-1.493A1.493,1.493,0,0,0,84.853,103.358Z" transform="translate(-58.973 -71.008)" fill="#fff" fill-rule="evenodd"/>
  <path id="Path_346" data-name="Path 346" d="M85.276,102.361a.916.916,0,0,0-.076.44l-.217.022a1.134,1.134,0,0,1,.094-.552.928.928,0,0,1,.558-.509l.071.207A.709.709,0,0,0,85.276,102.361Z" transform="translate(-60.118 -71.992)" fill="#fff" fill-rule="evenodd"/>
  <path id="Path_347" data-name="Path 347" d="M99.666,112.425a.85.85,0,1,0-.85-.85A.85.85,0,0,0,99.666,112.425Zm0,.145a1,1,0,1,0-1-1A1,1,0,0,0,99.666,112.571Z" transform="translate(-69.805 -78.23)" fill="#fff" fill-rule="evenodd"/>
  <path id="Path_348" data-name="Path 348" d="M100.217,111.74a.484.484,0,0,0-.387.511l-.145.018a.629.629,0,0,1,.492-.669Z" transform="translate(-70.521 -78.952)" fill="#fff" fill-rule="evenodd"/>
  <path id="Path_349" data-name="Path 349" d="M86.8,125.717a1.487,1.487,0,1,0-1.487-1.487A1.487,1.487,0,0,0,86.8,125.717Zm0,.255a1.742,1.742,0,1,0-1.742-1.742A1.742,1.742,0,0,0,86.8,125.972Z" transform="translate(-60.177 -86.654)" fill="#fff" fill-rule="evenodd"/>
  <path id="Path_350" data-name="Path 350" d="M87.3,124.809a1.068,1.068,0,0,0-.089.514l-.254.025a1.323,1.323,0,0,1,.11-.644,1.083,1.083,0,0,1,.651-.594l.083.241A.828.828,0,0,0,87.3,124.809Z" transform="translate(-61.512 -87.802)" fill="#fff" fill-rule="evenodd"/>
  <path id="Path_351" data-name="Path 351" d="M88.286,130.877a.648.648,0,0,0,.3.1l-.012.255a.9.9,0,0,1-.424-.139.747.747,0,0,1-.338-.5l.251-.047A.491.491,0,0,0,88.286,130.877Z" transform="translate(-62.121 -92.351)" fill="#fff" fill-rule="evenodd"/>
  <path id="Path_352" data-name="Path 352" d="M297.328,36.683v6.666c-1.473-4.018-5.3-7.1-10.821-7.1a11.663,11.663,0,0,0-8.585,3.353,12.833,12.833,0,0,0-3.322,9.182,12.833,12.833,0,0,0,3.322,9.182,11.663,11.663,0,0,0,8.585,3.353c5.519,0,9.348-3.079,10.821-7.1v6.783h1.086V36.566h-1.086Zm10.4,24.207v.117h1.131V37.741H315.8V36.566h-6.948V34.979c0-2.164.4-3.715,1.438-4.73s2.735-1.519,5.393-1.519h.117V27.6h-.117c-2.95,0-4.948.641-6.207,1.9s-1.755,3.112-1.755,5.479v1.586h-3.945v1.175h3.945Zm23.8.117h.117V59.876H328.97c-1.833,0-3.056-.281-3.828-1.069s-1.121-2.114-1.121-4.283V37.7h7.621V36.566h-7.621V30.379h-1.13v6.186h-3.945V37.7h3.945V54.524c0,2.363.438,3.992,1.422,5.028s2.494,1.454,4.568,1.454Zm28.263-8.3.022-.136h-1.134l-.016.1c-.751,4.726-4.769,7.612-10.105,7.612a10.67,10.67,0,0,1-7.284-2.664,11.207,11.207,0,0,1-3.355-8.309h21.822l.006-.111c.045-.81.045-1.261.045-2.425v0c0-5.124-3.767-10.517-11.234-10.517a11.5,11.5,0,0,0-8.433,3.319,12.856,12.856,0,0,0-3.339,9.215A12.856,12.856,0,0,0,340.122,58a11.5,11.5,0,0,0,8.433,3.319,12.115,12.115,0,0,0,7.683-2.418A9.775,9.775,0,0,0,359.788,52.7Zm17.723-15.457h.117v-1.22h-.117a11.485,11.485,0,0,0-6.521,1.645,7.36,7.36,0,0,0-2.911,4V36.566h-1.131V61.007h1.131V46.5c0-3.558,1.188-5.864,2.9-7.284a9.549,9.549,0,0,1,6.128-1.968ZM297.328,48.786a11.81,11.81,0,0,1-3.066,8.347,11.357,11.357,0,0,1-15.6.085,11.941,11.941,0,0,1-2.926-8.431,11.941,11.941,0,0,1,2.926-8.431,11.356,11.356,0,0,1,15.6.085A11.81,11.81,0,0,1,297.328,48.786Zm51.227-11.493a10.6,10.6,0,0,1,7.261,2.647c1.914,1.783,3.132,4.514,2.939,8.326H337.914a10.913,10.913,0,0,1,3.273-8.292A10.8,10.8,0,0,1,348.555,37.293Z" transform="translate(-194.266 -19.526)" fill="#363435" stroke="#363435" stroke-width="0.8"/>
</svg>
