<svg id="Group_47_3_" data-name="Group 47 (3)" xmlns="http://www.w3.org/2000/svg" width="299.451" height="71.988" viewBox="0 0 299.451 71.988">
  <path id="Path_280" data-name="Path 280" d="M637.972,67.333c0,7.8,4.979,12.738,11.976,12.738,6.1,0,10.092-3.409,11.348-8.3h-4.4c-.9,3.095-3.319,4.844-6.952,4.844-4.485,0-7.8-3.184-7.8-9.284,0-6.01,3.319-9.195,7.8-9.195,3.633,0,6.1,1.884,6.952,4.844h4.4c-1.256-5.158-5.248-8.3-11.348-8.3C642.951,54.685,637.972,59.619,637.972,67.333Z" transform="translate(-451.231 -38.678)" fill="#fff"/>
  <path id="Path_281" data-name="Path 281" d="M734.113,67.288c0,7.625,5.068,12.783,11.617,12.783a10.265,10.265,0,0,0,9.195-4.978v4.575h4.126V55.088h-4.126v4.485a10.2,10.2,0,0,0-9.15-4.889C739.181,54.685,734.113,59.619,734.113,67.288Zm20.812.045c0,5.786-3.857,9.15-8.343,9.15s-8.3-3.409-8.3-9.195,3.812-9.06,8.3-9.06S754.925,61.637,754.925,67.333Z" transform="translate(-519.231 -38.678)" fill="#fff"/>
  <path id="Path_282" data-name="Path 282" d="M850.021,66.193c0-5.7,2.96-7.446,6.863-7.446h1.076V54.532c-3.9,0-6.548,1.7-7.939,4.44V54.98h-4.081V79.559h4.081Z" transform="translate(-598.325 -38.57)" fill="#fff"/>
  <path id="Path_283" data-name="Path 283" d="M912.933,58.138c4.216,0,7.8,2.646,7.759,7.446H905.173C905.622,60.785,908.94,58.138,912.933,58.138Zm11.482,13.949h-4.4c-.9,2.646-3.23,4.53-6.907,4.53-4.172,0-7.67-2.736-7.984-7.715h19.646a22.087,22.087,0,0,0,.135-2.467c0-6.728-4.665-11.751-11.8-11.751-7.176,0-12.155,4.889-12.155,12.648,0,7.8,5.158,12.738,12.155,12.738C919.212,80.071,923.159,76.573,924.415,72.088Z" transform="translate(-637.238 -38.678)" fill="#fff"/>
  <path id="Path_284" data-name="Path 284" d="M993.1,27a4.641,4.641,0,1,0,4.642,4.641A4.641,4.641,0,0,0,993.1,27Zm-5,4.641a5,5,0,1,1,5,5A5,5,0,0,1,988.1,31.646Z" transform="translate(-699.154 -19.175)" fill="#fff" stroke="#fff" stroke-width="1" fill-rule="evenodd"/>
  <path id="Path_285" data-name="Path 285" d="M1001.516,35.915c0,.574-.345.992-1.115.992h-.951V34.943h.946C1001.191,34.943,1001.516,35.321,1001.516,35.915Zm-2.539-1.37v4.718h.472V37.292h.872l1.168,1.971h.565l-1.215-2A1.3,1.3,0,0,0,1002,35.915c0-.776-.512-1.37-1.607-1.37Z" transform="translate(-706.567 -24.433)" fill="#fff" stroke="#fff" stroke-width="1"/>
  <g id="Group_74" data-name="Group 74" transform="translate(104.205 53.273)" opacity="0.8">
    <path id="Path_286" data-name="Path 286" d="M356.052,186.244a2.171,2.171,0,0,0,2.288,2.713,3.284,3.284,0,0,0,2.89-1.6h-.875a2.227,2.227,0,0,1-1.9.971,1.6,1.6,0,0,1-1.654-2.086,2.468,2.468,0,0,1,2.433-2.094,1.449,1.449,0,0,1,1.542.978h.875a2.133,2.133,0,0,0-2.3-1.613A3.377,3.377,0,0,0,356.052,186.244Z" transform="translate(-356 -183.072)" fill="#fff"/>
    <path id="Path_287" data-name="Path 287" d="M381.811,189.553a1.679,1.679,0,0,0,1.686,2.178,2.3,2.3,0,0,0,1.807-.849l-.153.78h.739l.779-4.189h-.738l-.145.764a1.483,1.483,0,0,0-1.477-.833A2.548,2.548,0,0,0,381.811,189.553Zm3.733.008a1.838,1.838,0,0,1-1.783,1.559,1.193,1.193,0,0,1-1.2-1.567,1.81,1.81,0,0,1,1.774-1.544A1.191,1.191,0,0,1,385.544,189.561Z" transform="translate(-374.224 -185.823)" fill="#fff"/>
    <path id="Path_288" data-name="Path 288" d="M406.165,189.366a1.36,1.36,0,0,1,1.461-1.269h.193l.137-.719a1.82,1.82,0,0,0-1.582.871l.144-.8h-.731l-.779,4.189h.731Z" transform="translate(-390.664 -185.805)" fill="#fff"/>
    <path id="Path_289" data-name="Path 289" d="M420.18,187.895h.731l.779-4.189h-.731Zm1.277-4.869a.6.6,0,0,0,.578-.474.386.386,0,0,0-.4-.474.6.6,0,0,0-.578.474A.386.386,0,0,0,421.457,183.026Z" transform="translate(-401.394 -182.055)" fill="#fff"/>
    <path id="Path_290" data-name="Path 290" d="M435.088,191.644h.723l.458-2.469a1.362,1.362,0,0,0-1.461-1.8,2,2,0,0,0-1.542.68l.112-.6h-.731l-.779,4.189h.731l.434-2.331v.016a1.483,1.483,0,0,1,1.51-1.345c.739,0,1.14.436.988,1.292Z" transform="translate(-409.661 -185.805)" fill="#fff"/>
    <path id="Path_291" data-name="Path 291" d="M454.094,189.553a1.681,1.681,0,0,0,1.694,2.178,2.3,2.3,0,0,0,1.8-.856l-.16.879a1.594,1.594,0,0,1-1.622,1.368c-.723,0-1.18-.344-1.245-.848h-.731c-.024.894.707,1.452,1.863,1.452a2.411,2.411,0,0,0,2.465-1.972l.795-4.28h-.739l-.145.764a1.477,1.477,0,0,0-1.477-.833A2.548,2.548,0,0,0,454.094,189.553Zm3.734.008a1.838,1.838,0,0,1-1.782,1.559,1.193,1.193,0,0,1-1.2-1.567,1.809,1.809,0,0,1,1.774-1.544A1.191,1.191,0,0,1,457.828,189.561Z" transform="translate(-425.194 -185.823)" fill="#fff"/>
    <path id="Path_292" data-name="Path 292" d="M490.935,188.283h.731l.433-2.331v.016a1.483,1.483,0,0,1,1.509-1.345c.739,0,1.14.436.988,1.292l-.441,2.369h.722l.458-2.469a1.35,1.35,0,0,0-1.421-1.8,2.075,2.075,0,0,0-1.582.68l.385-2.071h-.731Z" transform="translate(-451.438 -182.443)" fill="#fff"/>
    <path id="Path_293" data-name="Path 293" d="M513.695,189.553a1.679,1.679,0,0,0,1.686,2.178,2.3,2.3,0,0,0,1.807-.849l-.153.78h.739l.779-4.189h-.738l-.145.764a1.484,1.484,0,0,0-1.477-.833A2.548,2.548,0,0,0,513.695,189.553Zm3.733.008a1.838,1.838,0,0,1-1.783,1.559,1.193,1.193,0,0,1-1.2-1.567,1.81,1.81,0,0,1,1.774-1.544A1.191,1.191,0,0,1,517.428,189.561Z" transform="translate(-467.504 -185.823)" fill="#fff"/>
    <path id="Path_294" data-name="Path 294" d="M540.113,191.644h.723l.458-2.469a1.362,1.362,0,0,0-1.461-1.8,2,2,0,0,0-1.542.68l.112-.6h-.731l-.779,4.189h.731l.433-2.331v.016a1.483,1.483,0,0,1,1.509-1.345c.739,0,1.14.436.988,1.292Z" transform="translate(-483.944 -185.805)" fill="#fff"/>
    <path id="Path_295" data-name="Path 295" d="M559.653,186.173a1.681,1.681,0,0,0,1.694,2.178,2.257,2.257,0,0,0,1.8-.856l-.153.787h.739l1.052-5.656h-.739l-.409,2.216a1.583,1.583,0,0,0-1.477-.818A2.55,2.55,0,0,0,559.653,186.173Zm3.734.008a1.838,1.838,0,0,1-1.783,1.559,1.193,1.193,0,0,1-1.2-1.567,1.809,1.809,0,0,1,1.774-1.544A1.191,1.191,0,0,1,563.387,186.181Z" transform="translate(-500.01 -182.443)" fill="#fff"/>
    <path id="Path_296" data-name="Path 296" d="M586.108,190.524c0-1.315-2.216-1.039-2.216-1.942,0-.382.377-.619.9-.619.57,0,.94.3.883.757h.7c.1-.787-.578-1.315-1.534-1.315-.98,0-1.678.482-1.678,1.2,0,1.368,2.224,1.085,2.224,1.941,0,.405-.425.627-1,.627-.61,0-.931-.313-.891-.741h-.715c-.1.795.61,1.3,1.566,1.3C585.353,191.731,586.108,191.273,586.108,190.524Z" transform="translate(-516.39 -185.823)" fill="#fff"/>
    <path id="Path_297" data-name="Path 297" d="M615.7,187.84h.731l.674-3.615h.923l.1-.573h-.923l.056-.3c.1-.543.361-.772,1.02-.772l.1-.581c-1.132,0-1.686.42-1.863,1.353l-.056.3H615.9l-.1.573h.562Z" transform="translate(-539.681 -182)" fill="#fff"/>
    <path id="Path_298" data-name="Path 298" d="M633.978,189.155a1.723,1.723,0,0,0-1.887-1.75,2.577,2.577,0,0,0-2.65,2.583,1.706,1.706,0,0,0,1.863,1.743A2.592,2.592,0,0,0,633.978,189.155Zm-3.782.8a1.855,1.855,0,0,1,1.791-1.964,1.142,1.142,0,0,1,1.236,1.2,1.888,1.888,0,0,1-1.831,1.949A1.115,1.115,0,0,1,630.2,189.958Z" transform="translate(-549.402 -185.823)" fill="#fff"/>
    <path id="Path_299" data-name="Path 299" d="M652.834,189.366A1.36,1.36,0,0,1,654.3,188.1h.193l.136-.719a1.82,1.82,0,0,0-1.582.871l.145-.8h-.731l-.779,4.189h.731Z" transform="translate(-565.13 -185.805)" fill="#fff"/>
    <path id="Path_300" data-name="Path 300" d="M681.256,191.783l-1.245,2.018h.763l3.79-6.161h-.755l-2,3.378-.747-3.378h-.811Z" transform="translate(-585.17 -185.989)" fill="#fff"/>
    <path id="Path_301" data-name="Path 301" d="M705.134,189.155a1.723,1.723,0,0,0-1.887-1.75,2.577,2.577,0,0,0-2.65,2.583,1.706,1.706,0,0,0,1.863,1.743A2.592,2.592,0,0,0,705.134,189.155Zm-3.782.8a1.855,1.855,0,0,1,1.791-1.964,1.142,1.142,0,0,1,1.237,1.2,1.888,1.888,0,0,1-1.831,1.949A1.115,1.115,0,0,1,701.353,189.958Z" transform="translate(-599.731 -185.823)" fill="#fff"/>
    <path id="Path_302" data-name="Path 302" d="M728.1,187.64h-.731l-.434,2.324v-.023a1.465,1.465,0,0,1-1.5,1.345c-.739,0-1.14-.436-.988-1.284l.434-2.362h-.723l-.457,2.453a1.373,1.373,0,0,0,1.477,1.8,2,2,0,0,0,1.526-.673l-.112.611h.731Z" transform="translate(-616.041 -185.989)" fill="#fff"/>
    <path id="Path_303" data-name="Path 303" d="M746.474,189.366a1.36,1.36,0,0,1,1.461-1.269h.193l.137-.719a1.82,1.82,0,0,0-1.582.871l.144-.8H746.1l-.779,4.189h.731Z" transform="translate(-631.361 -185.805)" fill="#fff"/>
    <path id="Path_304" data-name="Path 304" d="M773.866,189.561a1.669,1.669,0,0,0,1.75,2.171,2.424,2.424,0,0,0,2.288-1.414h-.787a1.459,1.459,0,0,1-1.389.825c-.8,0-1.3-.543-1.108-1.582a1.721,1.721,0,0,1,1.686-1.567c.65,0,1.036.321,1.092.825h.787c-.065-.879-.674-1.414-1.767-1.414A2.562,2.562,0,0,0,773.866,189.561Z" transform="translate(-651.519 -185.823)" fill="#fff"/>
    <path id="Path_305" data-name="Path 305" d="M795.2,188.283h.731l1.052-5.656h-.731Z" transform="translate(-666.64 -182.443)" fill="#fff"/>
    <path id="Path_306" data-name="Path 306" d="M811.668,189.155a1.723,1.723,0,0,0-1.887-1.75,2.577,2.577,0,0,0-2.65,2.583,1.706,1.706,0,0,0,1.863,1.743A2.592,2.592,0,0,0,811.668,189.155Zm-3.782.8a1.855,1.855,0,0,1,1.791-1.964,1.142,1.142,0,0,1,1.237,1.2,1.888,1.888,0,0,1-1.831,1.949A1.115,1.115,0,0,1,807.887,189.958Z" transform="translate(-675.081 -185.823)" fill="#fff"/>
    <path id="Path_307" data-name="Path 307" d="M830.378,188.134c-.152.841.233,1.147,1.012,1.147h.658l.112-.589h-.538c-.45,0-.586-.145-.506-.558l.458-2.469h1.148l.1-.573h-1.14l.193-1.055h-.739l-.193,1.055h-.57l-.1.573h.562Z" transform="translate(-691.449 -183.441)" fill="#fff"/>
    <path id="Path_308" data-name="Path 308" d="M844.3,188.283h.731l.434-2.331v.016a1.483,1.483,0,0,1,1.509-1.345c.739,0,1.14.436.988,1.292l-.442,2.369h.723l.457-2.469a1.35,1.35,0,0,0-1.421-1.8,2.075,2.075,0,0,0-1.582.68l.385-2.071h-.731Z" transform="translate(-701.369 -182.443)" fill="#fff"/>
    <path id="Path_309" data-name="Path 309" d="M869.5,187.994a1.04,1.04,0,0,1,1.148,1.307h-2.786A1.691,1.691,0,0,1,869.5,187.994Zm1.614,2.377h-.787a1.49,1.49,0,0,1-1.373.772,1.1,1.1,0,0,1-1.188-1.338h3.517a2.588,2.588,0,0,0,.1-.413,1.6,1.6,0,0,0-1.75-1.987,2.562,2.562,0,0,0-2.577,2.156,1.688,1.688,0,0,0,1.783,2.171A2.462,2.462,0,0,0,871.109,190.371Z" transform="translate(-717.431 -185.823)" fill="#fff"/>
    <path id="Path_310" data-name="Path 310" d="M891.986,190.524c0-1.315-2.216-1.039-2.216-1.942,0-.382.377-.619.9-.619.57,0,.94.3.883.757h.7c.1-.787-.578-1.315-1.534-1.315-.98,0-1.678.482-1.678,1.2,0,1.368,2.224,1.085,2.224,1.941,0,.405-.426.627-1,.627-.61,0-.931-.313-.891-.741h-.715c-.1.795.61,1.3,1.566,1.3C891.231,191.731,891.986,191.273,891.986,190.524Z" transform="translate(-732.735 -185.823)" fill="#fff"/>
    <path id="Path_311" data-name="Path 311" d="M356.052,186.244a2.171,2.171,0,0,0,2.288,2.713,3.284,3.284,0,0,0,2.89-1.6h-.875a2.227,2.227,0,0,1-1.9.971,1.6,1.6,0,0,1-1.654-2.086,2.468,2.468,0,0,1,2.433-2.094,1.449,1.449,0,0,1,1.542.978h.875a2.133,2.133,0,0,0-2.3-1.613A3.377,3.377,0,0,0,356.052,186.244Z" transform="translate(-356 -183.072)" fill="none" stroke="#fff" stroke-width="0.8"/>
    <path id="Path_312" data-name="Path 312" d="M381.811,189.553a1.679,1.679,0,0,0,1.686,2.178,2.3,2.3,0,0,0,1.807-.849l-.153.78h.739l.779-4.189h-.738l-.145.764a1.483,1.483,0,0,0-1.477-.833A2.548,2.548,0,0,0,381.811,189.553Zm3.733.008a1.838,1.838,0,0,1-1.783,1.559,1.193,1.193,0,0,1-1.2-1.567,1.81,1.81,0,0,1,1.774-1.544A1.191,1.191,0,0,1,385.544,189.561Z" transform="translate(-374.224 -185.823)" fill="none" stroke="#fff" stroke-width="0.8"/>
    <path id="Path_313" data-name="Path 313" d="M406.165,189.366a1.36,1.36,0,0,1,1.461-1.269h.193l.137-.719a1.82,1.82,0,0,0-1.582.871l.144-.8h-.731l-.779,4.189h.731Z" transform="translate(-390.664 -185.805)" fill="none" stroke="#fff" stroke-width="0.8"/>
    <path id="Path_314" data-name="Path 314" d="M420.18,187.895h.731l.779-4.189h-.731Zm1.277-4.869a.6.6,0,0,0,.578-.474.386.386,0,0,0-.4-.474.6.6,0,0,0-.578.474A.386.386,0,0,0,421.457,183.026Z" transform="translate(-401.394 -182.055)" fill="none" stroke="#fff" stroke-width="0.8"/>
    <path id="Path_315" data-name="Path 315" d="M435.088,191.644h.723l.458-2.469a1.362,1.362,0,0,0-1.461-1.8,2,2,0,0,0-1.542.68l.112-.6h-.731l-.779,4.189h.731l.434-2.331v.016a1.483,1.483,0,0,1,1.51-1.345c.739,0,1.14.436.988,1.292Z" transform="translate(-409.661 -185.805)" fill="none" stroke="#fff" stroke-width="0.8"/>
    <path id="Path_316" data-name="Path 316" d="M454.094,189.553a1.681,1.681,0,0,0,1.694,2.178,2.3,2.3,0,0,0,1.8-.856l-.16.879a1.594,1.594,0,0,1-1.622,1.368c-.723,0-1.18-.344-1.245-.848h-.731c-.024.894.707,1.452,1.863,1.452a2.411,2.411,0,0,0,2.465-1.972l.795-4.28h-.739l-.145.764a1.477,1.477,0,0,0-1.477-.833A2.548,2.548,0,0,0,454.094,189.553Zm3.734.008a1.838,1.838,0,0,1-1.782,1.559,1.193,1.193,0,0,1-1.2-1.567,1.809,1.809,0,0,1,1.774-1.544A1.191,1.191,0,0,1,457.828,189.561Z" transform="translate(-425.194 -185.823)" fill="none" stroke="#fff" stroke-width="0.8"/>
    <path id="Path_317" data-name="Path 317" d="M490.935,188.283h.731l.433-2.331v.016a1.483,1.483,0,0,1,1.509-1.345c.739,0,1.14.436.988,1.292l-.441,2.369h.722l.458-2.469a1.35,1.35,0,0,0-1.421-1.8,2.075,2.075,0,0,0-1.582.68l.385-2.071h-.731Z" transform="translate(-451.438 -182.443)" fill="none" stroke="#fff" stroke-width="0.8"/>
    <path id="Path_318" data-name="Path 318" d="M513.695,189.553a1.679,1.679,0,0,0,1.686,2.178,2.3,2.3,0,0,0,1.807-.849l-.153.78h.739l.779-4.189h-.738l-.145.764a1.484,1.484,0,0,0-1.477-.833A2.548,2.548,0,0,0,513.695,189.553Zm3.733.008a1.838,1.838,0,0,1-1.783,1.559,1.193,1.193,0,0,1-1.2-1.567,1.81,1.81,0,0,1,1.774-1.544A1.191,1.191,0,0,1,517.428,189.561Z" transform="translate(-467.504 -185.823)" fill="none" stroke="#fff" stroke-width="0.8"/>
    <path id="Path_319" data-name="Path 319" d="M540.113,191.644h.723l.458-2.469a1.362,1.362,0,0,0-1.461-1.8,2,2,0,0,0-1.542.68l.112-.6h-.731l-.779,4.189h.731l.433-2.331v.016a1.483,1.483,0,0,1,1.509-1.345c.739,0,1.14.436.988,1.292Z" transform="translate(-483.944 -185.805)" fill="none" stroke="#fff" stroke-width="0.8"/>
    <path id="Path_320" data-name="Path 320" d="M559.653,186.173a1.681,1.681,0,0,0,1.694,2.178,2.257,2.257,0,0,0,1.8-.856l-.153.787h.739l1.052-5.656h-.739l-.409,2.216a1.583,1.583,0,0,0-1.477-.818A2.55,2.55,0,0,0,559.653,186.173Zm3.734.008a1.838,1.838,0,0,1-1.783,1.559,1.193,1.193,0,0,1-1.2-1.567,1.809,1.809,0,0,1,1.774-1.544A1.191,1.191,0,0,1,563.387,186.181Z" transform="translate(-500.01 -182.443)" fill="none" stroke="#fff" stroke-width="0.8"/>
    <path id="Path_321" data-name="Path 321" d="M586.108,190.524c0-1.315-2.216-1.039-2.216-1.942,0-.382.377-.619.9-.619.57,0,.94.3.883.757h.7c.1-.787-.578-1.315-1.534-1.315-.98,0-1.678.482-1.678,1.2,0,1.368,2.224,1.085,2.224,1.941,0,.405-.425.627-1,.627-.61,0-.931-.313-.891-.741h-.715c-.1.795.61,1.3,1.566,1.3C585.353,191.731,586.108,191.273,586.108,190.524Z" transform="translate(-516.39 -185.823)" fill="none" stroke="#fff" stroke-width="0.8"/>
    <path id="Path_322" data-name="Path 322" d="M615.7,187.84h.731l.674-3.615h.923l.1-.573h-.923l.056-.3c.1-.543.361-.772,1.02-.772l.1-.581c-1.132,0-1.686.42-1.863,1.353l-.056.3H615.9l-.1.573h.562Z" transform="translate(-539.681 -182)" fill="none" stroke="#fff" stroke-width="0.8"/>
    <path id="Path_323" data-name="Path 323" d="M633.978,189.155a1.723,1.723,0,0,0-1.887-1.75,2.577,2.577,0,0,0-2.65,2.583,1.706,1.706,0,0,0,1.863,1.743A2.592,2.592,0,0,0,633.978,189.155Zm-3.782.8a1.855,1.855,0,0,1,1.791-1.964,1.142,1.142,0,0,1,1.236,1.2,1.888,1.888,0,0,1-1.831,1.949A1.115,1.115,0,0,1,630.2,189.958Z" transform="translate(-549.402 -185.823)" fill="none" stroke="#fff" stroke-width="0.8"/>
    <path id="Path_324" data-name="Path 324" d="M652.834,189.366A1.36,1.36,0,0,1,654.3,188.1h.193l.136-.719a1.82,1.82,0,0,0-1.582.871l.145-.8h-.731l-.779,4.189h.731Z" transform="translate(-565.13 -185.805)" fill="none" stroke="#fff" stroke-width="0.8"/>
    <path id="Path_325" data-name="Path 325" d="M681.256,191.783l-1.245,2.018h.763l3.79-6.161h-.755l-2,3.378-.747-3.378h-.811Z" transform="translate(-585.17 -185.989)" fill="none" stroke="#fff" stroke-width="0.8"/>
    <path id="Path_326" data-name="Path 326" d="M705.134,189.155a1.723,1.723,0,0,0-1.887-1.75,2.577,2.577,0,0,0-2.65,2.583,1.706,1.706,0,0,0,1.863,1.743A2.592,2.592,0,0,0,705.134,189.155Zm-3.782.8a1.855,1.855,0,0,1,1.791-1.964,1.142,1.142,0,0,1,1.237,1.2,1.888,1.888,0,0,1-1.831,1.949A1.115,1.115,0,0,1,701.353,189.958Z" transform="translate(-599.731 -185.823)" fill="none" stroke="#fff" stroke-width="0.8"/>
    <path id="Path_327" data-name="Path 327" d="M728.1,187.64h-.731l-.434,2.324v-.023a1.465,1.465,0,0,1-1.5,1.345c-.739,0-1.14-.436-.988-1.284l.434-2.362h-.723l-.457,2.453a1.373,1.373,0,0,0,1.477,1.8,2,2,0,0,0,1.526-.673l-.112.611h.731Z" transform="translate(-616.041 -185.989)" fill="none" stroke="#fff" stroke-width="0.8"/>
    <path id="Path_328" data-name="Path 328" d="M746.474,189.366a1.36,1.36,0,0,1,1.461-1.269h.193l.137-.719a1.82,1.82,0,0,0-1.582.871l.144-.8H746.1l-.779,4.189h.731Z" transform="translate(-631.361 -185.805)" fill="none" stroke="#fff" stroke-width="0.8"/>
    <path id="Path_329" data-name="Path 329" d="M773.866,189.561a1.669,1.669,0,0,0,1.75,2.171,2.424,2.424,0,0,0,2.288-1.414h-.787a1.459,1.459,0,0,1-1.389.825c-.8,0-1.3-.543-1.108-1.582a1.721,1.721,0,0,1,1.686-1.567c.65,0,1.036.321,1.092.825h.787c-.065-.879-.674-1.414-1.767-1.414A2.562,2.562,0,0,0,773.866,189.561Z" transform="translate(-651.519 -185.823)" fill="none" stroke="#fff" stroke-width="0.8"/>
    <path id="Path_330" data-name="Path 330" d="M795.2,188.283h.731l1.052-5.656h-.731Z" transform="translate(-666.64 -182.443)" fill="none" stroke="#fff" stroke-width="0.8"/>
    <path id="Path_331" data-name="Path 331" d="M811.668,189.155a1.723,1.723,0,0,0-1.887-1.75,2.577,2.577,0,0,0-2.65,2.583,1.706,1.706,0,0,0,1.863,1.743A2.592,2.592,0,0,0,811.668,189.155Zm-3.782.8a1.855,1.855,0,0,1,1.791-1.964,1.142,1.142,0,0,1,1.237,1.2,1.888,1.888,0,0,1-1.831,1.949A1.115,1.115,0,0,1,807.887,189.958Z" transform="translate(-675.081 -185.823)" fill="none" stroke="#fff" stroke-width="0.8"/>
    <path id="Path_332" data-name="Path 332" d="M830.378,188.134c-.152.841.233,1.147,1.012,1.147h.658l.112-.589h-.538c-.45,0-.586-.145-.506-.558l.458-2.469h1.148l.1-.573h-1.14l.193-1.055h-.739l-.193,1.055h-.57l-.1.573h.562Z" transform="translate(-691.449 -183.441)" fill="none" stroke="#fff" stroke-width="0.8"/>
    <path id="Path_333" data-name="Path 333" d="M844.3,188.283h.731l.434-2.331v.016a1.483,1.483,0,0,1,1.509-1.345c.739,0,1.14.436.988,1.292l-.442,2.369h.723l.457-2.469a1.35,1.35,0,0,0-1.421-1.8,2.075,2.075,0,0,0-1.582.68l.385-2.071h-.731Z" transform="translate(-701.369 -182.443)" fill="none" stroke="#fff" stroke-width="0.8"/>
    <path id="Path_334" data-name="Path 334" d="M869.5,187.994a1.04,1.04,0,0,1,1.148,1.307h-2.786A1.691,1.691,0,0,1,869.5,187.994Zm1.614,2.377h-.787a1.49,1.49,0,0,1-1.373.772,1.1,1.1,0,0,1-1.188-1.338h3.517a2.588,2.588,0,0,0,.1-.413,1.6,1.6,0,0,0-1.75-1.987,2.562,2.562,0,0,0-2.577,2.156,1.688,1.688,0,0,0,1.783,2.171A2.462,2.462,0,0,0,871.109,190.371Z" transform="translate(-717.431 -185.823)" fill="none" stroke="#fff" stroke-width="0.8"/>
    <path id="Path_335" data-name="Path 335" d="M891.986,190.524c0-1.315-2.216-1.039-2.216-1.942,0-.382.377-.619.9-.619.57,0,.94.3.883.757h.7c.1-.787-.578-1.315-1.534-1.315-.98,0-1.678.482-1.678,1.2,0,1.368,2.224,1.085,2.224,1.941,0,.405-.426.627-1,.627-.61,0-.931-.313-.891-.741h-.715c-.1.795.61,1.3,1.566,1.3C891.231,191.731,891.986,191.273,891.986,190.524Z" transform="translate(-732.735 -185.823)" fill="none" stroke="#fff" stroke-width="0.8"/>
  </g>
  <path id="Path_336" data-name="Path 336" d="M71.988,35.994A35.994,35.994,0,1,1,35.994,0,35.994,35.994,0,0,1,71.988,35.994Z" fill="#fff"/>
  <path id="Path_337" data-name="Path 337" d="M127.163,96.519c.076-7.088,4.714-11.628,11.187-11.558,4.972.053,8.361,2.573,9.884,6.3a.238.238,0,0,0-.105.026c-1.385.676-8.468,1.332-9.649.8-.352-.157-.447-.238-.436-.375l1.173-2.213-2.027-1.072A9.009,9.009,0,0,1,135.353,90a10.57,10.57,0,0,0-1.832,1.532,3.74,3.74,0,0,0-.536,2.776,8.136,8.136,0,0,1,.148,5.317c-.063.267-.118.5-.148.686a2.9,2.9,0,0,0,.368,1.876l3.837,3.252,1.96-1.038-1.039-1.988c-.188-.54.167-.6.369-.563,1.4.078,2.859.063,4.217.049,2.436-.024,4.543-.045,5.373.474-1.624,3.814-5.045,5.953-9.969,5.9C131.627,108.2,127.087,103.566,127.163,96.519Z" transform="translate(-89.94 -60.092)" fill="#b52421" fill-rule="evenodd"/>
  <path id="Path_338" data-name="Path 338" d="M44.716,96.3c0,7.044,4.423,11.344,10.77,11.344,5.283,0,8.846-3.112,9.992-7.044v6.757h.778V85.247h-.778V92c-1.147-3.932-4.709-7.044-9.992-7.044C49.139,84.96,44.716,89.26,44.716,96.3Zm20.763,0c0,6.389-4.218,10.607-9.992,10.607-6.061,0-9.951-4.013-9.951-10.607S49.426,85.7,55.486,85.7C61.261,85.7,65.479,89.915,65.479,96.3Z" transform="translate(-31.627 -60.092)" fill="#b52421"/>
  <path id="Path_339" data-name="Path 339" d="M54.954,95.295a10.467,10.467,0,0,0,0,12.853,8.509,8.509,0,0,0,11.755-.066,9.905,9.905,0,0,0,0-12.721,8.508,8.508,0,0,0-11.755-.066Zm-.363-.341a9,9,0,0,1,12.479.064,10.4,10.4,0,0,1,0,13.406,9,9,0,0,1-12.479.064,10.955,10.955,0,0,1,0-13.535Z" transform="translate(-36.956 -65.406)" fill="#b52421" fill-rule="evenodd"/>
  <path id="Path_340" data-name="Path 340" d="M106.2,118.478h2.045v3.681H106.2Z" transform="translate(-75.115 -83.798)" fill="#b52421"/>
  <path id="Path_341" data-name="Path 341" d="M74.824,114.311a2.039,2.039,0,0,0-.8.879s-.441-.253.036-.689S75.135,114.174,74.824,114.311Z" transform="translate(-52.222 -80.766)" fill="#b52421"/>
  <path id="Path_342" data-name="Path 342" d="M77.2,101.189a2.633,2.633,0,0,0-1.182.859A1.539,1.539,0,0,1,76.6,101C77,100.641,78.05,100.85,77.2,101.189Z" transform="translate(-53.766 -71.305)" fill="#b52421"/>
  <path id="Path_343" data-name="Path 343" d="M75.486,123.422a1.889,1.889,0,0,0-.381.962,1.765,1.765,0,0,1-.042-.843C75.163,123.173,75.865,122.895,75.486,123.422Z" transform="translate(-53.066 -87.089)" fill="#b52421"/>
  <path id="Path_344" data-name="Path 344" d="M60.494,106.511a3.765,3.765,0,0,1,1.071-1.633c.545-.278.077-1.455-1.539.456s-3.1,5.674.007,9.909,10.186,2.228,11.7-2.071a5.832,5.832,0,0,1-8.152-.584l.989,1.358c.11.313.1.773-.839.109-1.168-.83-2.833-2.3-1.857-5.014.011-.2-.065-.495-.453-.024-.171.375-.5.91-.457.053a4.869,4.869,0,0,1,1.128-2.706c.569-.738-1.4.618-1.413.924S60.076,107.257,60.494,106.511Zm-.854,3.536a1.738,1.738,0,0,1,.267-1.613A14.87,14.87,0,0,0,59.64,110.047ZM62.7,115a3.491,3.491,0,0,1-2.2-2.8C60.786,112.953,61.629,114.574,62.7,115Zm4.328,1.939c-2.843.568-4.326.13-5.89-1.309.2.1.439.232.687.369a5.574,5.574,0,0,0,1.424.66,1.719,1.719,0,0,0-.178-.2c-.266-.273-.619-.636.44-.012a4.571,4.571,0,0,0,2.685.474C66.441,116.927,66.717,116.931,67.026,116.938Z" transform="translate(-41.176 -73.745)" fill="#b52421" fill-rule="evenodd"/>
  <path id="Path_345" data-name="Path 345" d="M84.854,103.141a1.275,1.275,0,1,0-1.275-1.275A1.275,1.275,0,0,0,84.854,103.141Zm0,.219a1.494,1.494,0,1,0-1.494-1.494A1.494,1.494,0,0,0,84.854,103.36Z" transform="translate(-58.96 -70.992)" fill="#b52421" fill-rule="evenodd"/>
  <path id="Path_346" data-name="Path 346" d="M85.276,102.361a.916.916,0,0,0-.076.441l-.218.022a1.135,1.135,0,0,1,.094-.552.929.929,0,0,1,.558-.51l.072.207A.71.71,0,0,0,85.276,102.361Z" transform="translate(-60.104 -71.975)" fill="#b52421" fill-rule="evenodd"/>
  <path id="Path_347" data-name="Path 347" d="M99.667,112.426a.85.85,0,1,0-.85-.85A.85.85,0,0,0,99.667,112.426Zm0,.145a1,1,0,1,0-1-1A1,1,0,0,0,99.667,112.572Z" transform="translate(-69.789 -78.212)" fill="#b52421" fill-rule="evenodd"/>
  <path id="Path_348" data-name="Path 348" d="M100.218,111.74a.484.484,0,0,0-.387.511l-.145.018a.629.629,0,0,1,.492-.669Z" transform="translate(-70.504 -78.934)" fill="#b52421" fill-rule="evenodd"/>
  <path id="Path_349" data-name="Path 349" d="M86.8,125.719a1.488,1.488,0,1,0-1.488-1.488A1.488,1.488,0,0,0,86.8,125.719Zm0,.255a1.743,1.743,0,1,0-1.743-1.743A1.743,1.743,0,0,0,86.8,125.974Z" transform="translate(-60.163 -86.635)" fill="#b52421" fill-rule="evenodd"/>
  <path id="Path_350" data-name="Path 350" d="M87.3,124.809a1.068,1.068,0,0,0-.089.514l-.254.025a1.324,1.324,0,0,1,.11-.644,1.084,1.084,0,0,1,.651-.594l.083.241A.828.828,0,0,0,87.3,124.809Z" transform="translate(-61.498 -87.782)" fill="#b52421" fill-rule="evenodd"/>
  <path id="Path_351" data-name="Path 351" d="M88.286,130.877a.649.649,0,0,0,.3.1l-.012.255a.9.9,0,0,1-.424-.139.747.747,0,0,1-.339-.5l.251-.047A.491.491,0,0,0,88.286,130.877Z" transform="translate(-62.107 -92.33)" fill="#b52421" fill-rule="evenodd"/>
  <path id="Path_352" data-name="Path 352" d="M297.34,36.688v6.67c-1.474-4.02-5.3-7.1-10.827-7.1a11.67,11.67,0,0,0-8.589,3.355A12.84,12.84,0,0,0,274.6,48.8a12.84,12.84,0,0,0,3.324,9.187,11.67,11.67,0,0,0,8.589,3.355c5.522,0,9.353-3.081,10.827-7.1v6.787h1.086V36.571H297.34Zm10.4,24.22v.117h1.131V37.747h6.952V36.571h-6.952V34.983c0-2.165.4-3.718,1.439-4.732s2.737-1.52,5.4-1.52h.117V27.6h-.117c-2.952,0-4.951.642-6.211,1.9s-1.756,3.114-1.756,5.482v1.587h-3.947v1.176h3.947Zm23.815.117h.117V59.894H329c-1.834,0-3.058-.281-3.83-1.069s-1.122-2.115-1.122-4.286V37.7h7.625V36.571h-7.625v-6.19h-1.131v6.19h-3.947V37.7h3.947V54.539c0,2.364.438,3.995,1.423,5.031s2.5,1.455,4.57,1.455Zm28.278-8.307.022-.136h-1.135l-.016.1c-.751,4.729-4.771,7.616-10.111,7.616a10.675,10.675,0,0,1-7.288-2.666,11.213,11.213,0,0,1-3.357-8.313h21.834l.006-.111c.045-.81.045-1.262.045-2.426v0c0-5.126-3.769-10.523-11.241-10.523a11.507,11.507,0,0,0-8.438,3.321,12.863,12.863,0,0,0-3.341,9.22,12.863,12.863,0,0,0,3.341,9.22,11.507,11.507,0,0,0,8.438,3.321,12.122,12.122,0,0,0,7.687-2.42A9.78,9.78,0,0,0,359.835,52.719Zm17.733-15.465h.117V36.032h-.117a11.491,11.491,0,0,0-6.525,1.646,7.365,7.365,0,0,0-2.912,4V36.571H367V61.025h1.131V46.51c0-3.56,1.189-5.868,2.9-7.288a9.554,9.554,0,0,1,6.132-1.969ZM297.34,48.8a11.817,11.817,0,0,1-3.068,8.351,11.363,11.363,0,0,1-15.613.085,11.948,11.948,0,0,1-2.928-8.436,11.948,11.948,0,0,1,2.928-8.436,11.363,11.363,0,0,1,15.613.085A11.817,11.817,0,0,1,297.34,48.8ZM348.6,37.3a10.611,10.611,0,0,1,7.265,2.649c1.915,1.784,3.134,4.516,2.941,8.33H337.949a10.919,10.919,0,0,1,3.275-8.3A10.8,10.8,0,0,1,348.6,37.3Z" transform="translate(-194.222 -19.521)" fill="#fff" stroke="#fff" stroke-width="0.8"/>
</svg>
