<svg id="promo_icon" xmlns="http://www.w3.org/2000/svg" width="22" height="22" viewBox="0 0 22 22">
  <g id="Group_474" data-name="Group 474">
    <path id="Path_1201" data-name="Path 1201" d="M34.064,28.553A3.839,3.839,0,0,0,35.2,26.032a3.986,3.986,0,0,0-1.136-2.521c-.149-.221-.389-.536-.448-.63a4,4,0,0,1,0-.851,4.224,4.224,0,0,0-.508-2.742,3.583,3.583,0,0,0-2.361-1.324A2.644,2.644,0,0,1,30,17.711c-.09-.095-.3-.473-.448-.693a3.684,3.684,0,0,0-1.943-1.891A1.746,1.746,0,0,0,26.8,15a4.335,4.335,0,0,0-1.793.473,3.726,3.726,0,0,1-.807.252,4.306,4.306,0,0,1-.807-.252A4.746,4.746,0,0,0,21.6,15a7.908,7.908,0,0,0-.807.095,4.193,4.193,0,0,0-1.943,1.891c-.149.221-.359.567-.448.693a1.519,1.519,0,0,1-.747.252,4.032,4.032,0,0,0-2.361,1.324A4.421,4.421,0,0,0,14.784,22a4,4,0,0,1,0,.851,5.411,5.411,0,0,1-.448.63A3.839,3.839,0,0,0,13.2,26a3.986,3.986,0,0,0,1.136,2.521c.149.221.389.536.448.63a4,4,0,0,1,0,.851,4.224,4.224,0,0,0,.508,2.742,3.583,3.583,0,0,0,2.361,1.324,2.643,2.643,0,0,1,.747.252c.09.095.3.473.448.693a3.684,3.684,0,0,0,1.943,1.891A2.2,2.2,0,0,0,21.6,37a4.335,4.335,0,0,0,1.793-.473,3.726,3.726,0,0,1,.807-.252,4.306,4.306,0,0,1,.807.252A4.746,4.746,0,0,0,26.8,37a7.906,7.906,0,0,0,.807-.095,4.193,4.193,0,0,0,1.943-1.891c.149-.221.359-.567.448-.693a1.924,1.924,0,0,1,.747-.252,4.032,4.032,0,0,0,2.361-1.324A4.421,4.421,0,0,0,33.616,30a4,4,0,0,1,0-.851C33.646,29.089,33.915,28.774,34.064,28.553Zm-1.315-1.1a4.934,4.934,0,0,0-.807,1.2,4.414,4.414,0,0,0-.06,1.544,2.557,2.557,0,0,1-.149,1.544,1.979,1.979,0,0,1-1.345.63,3.065,3.065,0,0,0-1.345.536,3.468,3.468,0,0,0-.9,1.166A2.3,2.3,0,0,1,27.1,35.235a.345.345,0,0,1-.239.063,2.419,2.419,0,0,1-1.136-.378,3.416,3.416,0,0,0-1.465-.41,4.265,4.265,0,0,0-1.465.41,3.666,3.666,0,0,1-1.136.378c-.09,0-.209,0-.239-.063a2.983,2.983,0,0,1-1.046-1.166,4.234,4.234,0,0,0-.9-1.166,4.356,4.356,0,0,0-1.345-.536c-.538-.158-1.106-.252-1.345-.63a2.557,2.557,0,0,1-.149-1.544,3.825,3.825,0,0,0-.09-1.544,3.366,3.366,0,0,0-.807-1.2,2.672,2.672,0,0,1-.807-1.418,2.743,2.743,0,0,1,.747-1.418,4.934,4.934,0,0,0,.807-1.2,4.414,4.414,0,0,0,.06-1.544,2.557,2.557,0,0,1,.149-1.544,1.979,1.979,0,0,1,1.345-.63,3.065,3.065,0,0,0,1.345-.536,3.813,3.813,0,0,0,.9-1.166,2.3,2.3,0,0,1,1.046-1.166.345.345,0,0,1,.239-.063,2.419,2.419,0,0,1,1.136.378,3.416,3.416,0,0,0,1.465.41,4.265,4.265,0,0,0,1.465-.41,3.666,3.666,0,0,1,1.136-.378c.09,0,.209,0,.239.063a2.983,2.983,0,0,1,1.046,1.166,4.235,4.235,0,0,0,.9,1.166A4.356,4.356,0,0,0,30.3,19.7c.538.158,1.106.252,1.345.63a2.557,2.557,0,0,1,.149,1.544,4.446,4.446,0,0,0,.06,1.544,3.366,3.366,0,0,0,.807,1.2,2.743,2.743,0,0,1,.747,1.418C33.5,26.5,33.108,26.977,32.749,27.45Zm-5.59-2.458c-1.345,0-2,.946-2,2.9a3.8,3.8,0,0,0,.508,2.175,1.9,1.9,0,0,0,2.989,0,3.606,3.606,0,0,0,.508-2.175,4.041,4.041,0,0,0-.538-2.175A1.7,1.7,0,0,0,27.159,24.991Zm0,4.476c-.209,0-.359-.095-.389-.378a4.874,4.874,0,0,1,0-2.4c.09-.252.239-.378.389-.378.359,0,.538.536.538,1.576C27.757,28.931,27.548,29.467,27.159,29.467Zm-4.424-3.12a3.606,3.606,0,0,0,.508-2.175A4.041,4.041,0,0,0,22.705,22a1.758,1.758,0,0,0-1.495-.725c-1.345,0-2,.946-2,2.9a3.669,3.669,0,0,0,.508,2.175,1.758,1.758,0,0,0,1.495.725A1.606,1.606,0,0,0,22.735,26.347ZM20.792,25.4a4.874,4.874,0,0,1,0-2.4c.09-.252.239-.378.389-.378.359,0,.538.536.538,1.576s-.209,1.576-.538,1.576C21.061,25.779,20.912,25.653,20.792,25.4Zm5.052-3.971-4.693,9.235h1.4l4.693-9.235Z" transform="translate(-13.2 -15)" fill="#bd3935"/>
  </g>
</svg>
