<svg width="30" height="30" viewBox="0 0 30 30" fill="none" xmlns="http://www.w3.org/2000/svg">
<path d="M28.1235 15L29.7795 12.138C29.9785 11.7937 30.0327 11.3844 29.93 11.0002C29.8273 10.6159 29.5763 10.2882 29.232 10.089L26.367 8.43303V5.13302C26.367 4.7352 26.209 4.35367 25.9277 4.07236C25.6464 3.79106 25.2648 3.63302 24.867 3.63302H21.5685L19.914 0.769525C19.7142 0.4259 19.3871 0.174783 19.0035 0.0705252C18.8133 0.018949 18.6147 0.00564985 18.4192 0.0313985C18.2238 0.0571472 18.0354 0.121432 17.865 0.220525L15 1.87653L12.135 0.219025C11.7905 0.0201217 11.3811 -0.0337802 10.9968 0.0691765C10.6126 0.172133 10.2849 0.423516 10.086 0.768025L8.43001 3.63302H5.13152C4.73369 3.63302 4.35216 3.79106 4.07086 4.07236C3.78955 4.35367 3.63152 4.7352 3.63152 5.13302V8.43152L0.766516 10.0875C0.595564 10.1859 0.445727 10.317 0.325613 10.4734C0.205499 10.6298 0.117475 10.8084 0.0665995 10.999C0.0157238 11.1895 0.00299865 11.3882 0.0291552 11.5837C0.0553117 11.7792 0.119834 11.9676 0.219016 12.138L1.87502 15L0.219016 17.862C0.0209991 18.2067 -0.0327261 18.6157 0.0695535 18.9998C0.171833 19.3839 0.421822 19.712 0.765016 19.9125L3.63002 21.5685V24.867C3.63002 25.2648 3.78805 25.6464 4.06936 25.9277C4.35066 26.209 4.73219 26.367 5.13002 26.367H8.43001L10.086 29.232C10.2188 29.459 10.4084 29.6476 10.6362 29.7791C10.8639 29.9106 11.122 29.9805 11.385 29.982C11.646 29.982 11.9055 29.913 12.1365 29.7795L14.9985 28.1235L17.8635 29.7795C18.2079 29.9781 18.6171 30.0321 19.0012 29.9294C19.3853 29.8268 19.7131 29.576 19.9125 29.232L21.567 26.367H24.8655C25.2633 26.367 25.6449 26.209 25.9262 25.9277C26.2075 25.6464 26.3655 25.2648 26.3655 24.867V21.5685L29.2305 19.9125C29.4012 19.8139 29.5507 19.6826 29.6706 19.5262C29.7905 19.3697 29.8784 19.1912 29.9292 19.0007C29.9801 18.8103 29.9929 18.6117 29.9669 18.4163C29.941 18.2209 29.8768 18.0326 29.778 17.862L28.1235 15ZM11.2485 7.48502C11.8455 7.48522 12.4179 7.72255 12.8398 8.14478C13.2618 8.56702 13.4987 9.13959 13.4985 9.73652C13.4983 10.3335 13.261 10.9059 12.8388 11.3278C12.4165 11.7498 11.844 11.9867 11.247 11.9865C10.6501 11.9863 10.0777 11.749 9.65571 11.3268C9.23376 10.9045 8.99682 10.332 8.99701 9.73502C8.99721 9.13809 9.23454 8.56568 9.65677 8.14372C10.079 7.72177 10.6516 7.48483 11.2485 7.48502ZM11.6985 21.885L9.29852 20.0865L18.2985 8.08652L20.6985 9.88503L11.6985 21.885ZM18.7485 22.485C18.4529 22.4849 18.1603 22.4266 17.8872 22.3134C17.6142 22.2002 17.3661 22.0343 17.1572 21.8253C16.9483 21.6162 16.7826 21.368 16.6696 21.0949C16.5565 20.8218 16.4984 20.5291 16.4985 20.2335C16.4986 19.938 16.5569 19.6453 16.6701 19.3723C16.7833 19.0992 16.9492 18.8512 17.1583 18.6422C17.3673 18.4333 17.6155 18.2676 17.8886 18.1546C18.1617 18.0415 18.4544 17.9834 18.75 17.9835C19.347 17.9837 19.9194 18.221 20.3413 18.6433C20.7633 19.0655 21.0002 19.6381 21 20.235C20.9998 20.832 20.7625 21.4044 20.3403 21.8263C19.918 22.2483 19.3454 22.4852 18.7485 22.485Z" fill="#FFBA2E"/>
</svg>
