<svg xmlns="http://www.w3.org/2000/svg" width="123" height="29" viewBox="0 0 123 29">
  <g id="Subtraction_10" data-name="Subtraction 10" transform="translate(3584 -5487.999)" fill="#fffae6">
    <path d="M -3547.517822265625 5516.49853515625 L -3583.499755859375 5516.498046875 L -3583.499755859375 5488.4990234375 L -3549.781005859375 5488.4990234375 L -3547.791748046875 5488.4990234375 L -3543.160400390625 5493.12890625 L -3542.806884765625 5493.482421875 L -3542.453369140625 5493.12890625 L -3537.821533203125 5488.4990234375 L -3461.499755859375 5488.4990234375 L -3461.499755859375 5516.4970703125 L -3538.096435546875 5516.498046875 L -3542.453369140625 5512.142578125 L -3542.806884765625 5511.7890625 L -3543.160400390625 5512.142578125 L -3547.517822265625 5516.49853515625 Z" stroke="none"/>
    <path d="M -3547.724853515625 5515.99853515625 L -3542.806884765625 5511.08203125 L -3537.889404296875 5515.998046875 L -3461.999755859375 5515.9970703125 L -3461.999755859375 5488.9990234375 L -3537.614501953125 5488.9990234375 L -3542.806884765625 5494.189453125 L -3547.998779296875 5488.9990234375 L -3582.999755859375 5488.9990234375 L -3582.999755859375 5515.998046875 L -3547.724853515625 5515.99853515625 M -3547.310302734375 5516.99853515625 L -3583.999755859375 5516.998046875 L -3583.999755859375 5487.9990234375 L -3460.999755859375 5487.9990234375 L -3460.999755859375 5516.9970703125 L -3538.303466796875 5516.998046875 L -3542.806884765625 5512.49609375 L -3547.310302734375 5516.99853515625 Z M -3547.448486328125 5488.1357421875 L -3547.447998046875 5488.1357421875 L -3542.806884765625 5492.775390625 L -3538.165283203125 5488.1357421875 L -3547.448486328125 5488.1357421875 Z" stroke="none" fill="#ddd8cd"/>
  </g>
</svg>
