<svg width="30" height="30" viewBox="0 0 30 30" fill="none" xmlns="http://www.w3.org/2000/svg">
<path d="M9.375 18.75C9.15567 18.7544 8.94174 18.6818 8.77045 18.5448C8.59915 18.4077 8.48133 18.2149 8.4375 18L6.24375 6.94687C6.11598 6.30988 5.77162 5.73676 5.26917 5.32489C4.76673 4.91302 4.13718 4.68781 3.4875 4.6875H1.875C1.62636 4.6875 1.3879 4.58873 1.21209 4.41291C1.03627 4.2371 0.9375 3.99864 0.9375 3.75C0.9375 3.50136 1.03627 3.2629 1.21209 3.08709C1.3879 2.91127 1.62636 2.8125 1.875 2.8125H3.4875C4.56811 2.81228 5.61561 3.18542 6.45272 3.86878C7.28983 4.55213 7.86513 5.50372 8.08125 6.5625L10.3125 17.625C10.3397 17.7483 10.3418 17.8758 10.3185 17.9999C10.2953 18.124 10.2472 18.2422 10.1771 18.3472C10.1071 18.4523 10.0165 18.5421 9.91091 18.6113C9.8053 18.6806 9.68679 18.7277 9.5625 18.75H9.375Z" fill="#101820"/>
<path d="M10.3124 25.3125H8.56864C7.57432 25.3063 6.62029 24.9188 5.90335 24.2298C5.1864 23.5408 4.76123 22.603 4.71553 21.6097C4.66983 20.6164 5.0071 19.6435 5.65776 18.8916C6.30842 18.1397 7.22284 17.6662 8.21239 17.5687L25.4718 16.0031L26.9811 8.4375H7.49989C7.25125 8.4375 7.01279 8.33873 6.83698 8.16291C6.66116 7.9871 6.56239 7.74864 6.56239 7.5C6.56239 7.25136 6.66116 7.0129 6.83698 6.83709C7.01279 6.66127 7.25125 6.5625 7.49989 6.5625H28.1249C28.2634 6.56342 28.3999 6.595 28.5247 6.65497C28.6495 6.71495 28.7595 6.80183 28.8468 6.90937C28.9384 7.01482 29.0053 7.13941 29.0426 7.27403C29.0799 7.40866 29.0867 7.54993 29.0624 7.6875L27.1874 17.0625C27.1478 17.2608 27.0451 17.4409 26.8948 17.5761C26.7444 17.7112 26.5544 17.7942 26.353 17.8125L8.38114 19.4437C7.85154 19.4686 7.3535 19.7028 6.99659 20.0949C6.63969 20.487 6.45315 21.0048 6.47801 21.5344C6.50288 22.064 6.73711 22.562 7.12918 22.9189C7.52125 23.2758 8.03904 23.4624 8.56864 23.4375H10.3124C10.561 23.4375 10.7995 23.5363 10.9753 23.7121C11.1511 23.8879 11.2499 24.1264 11.2499 24.375C11.2499 24.6236 11.1511 24.8621 10.9753 25.0379C10.7995 25.2137 10.561 25.3125 10.3124 25.3125Z" fill="#101820"/>
<path d="M24.375 28.125C23.6333 28.125 22.9083 27.9051 22.2916 27.493C21.6749 27.081 21.1943 26.4953 20.9105 25.8101C20.6266 25.1248 20.5524 24.3708 20.6971 23.6434C20.8418 22.916 21.1989 22.2478 21.7234 21.7234C22.2478 21.1989 22.916 20.8418 23.6434 20.6971C24.3708 20.5524 25.1248 20.6266 25.8101 20.9105C26.4953 21.1943 27.081 21.6749 27.493 22.2916C27.9051 22.9083 28.125 23.6333 28.125 24.375C28.125 25.3696 27.7299 26.3234 27.0267 27.0267C26.3234 27.7299 25.3696 28.125 24.375 28.125ZM24.375 22.5C24.0042 22.5 23.6416 22.61 23.3333 22.816C23.025 23.022 22.7846 23.3149 22.6427 23.6575C22.5008 24.0001 22.4637 24.3771 22.536 24.7408C22.6084 25.1045 22.787 25.4386 23.0492 25.7008C23.3114 25.9631 23.6455 26.1416 24.0092 26.214C24.3729 26.2863 24.7499 26.2492 25.0925 26.1073C25.4351 25.9654 25.728 25.725 25.934 25.4167C26.14 25.1084 26.25 24.7458 26.25 24.375C26.25 23.8777 26.0525 23.4008 25.7008 23.0492C25.3492 22.6975 24.8723 22.5 24.375 22.5Z" fill="#101820"/>
<path d="M13.125 28.125C12.3833 28.125 11.6583 27.9051 11.0416 27.493C10.4249 27.081 9.94428 26.4953 9.66045 25.8101C9.37662 25.1248 9.30236 24.3708 9.44706 23.6434C9.59175 22.916 9.9489 22.2478 10.4734 21.7234C10.9978 21.1989 11.666 20.8418 12.3934 20.6971C13.1208 20.5524 13.8748 20.6266 14.5601 20.9105C15.2453 21.1943 15.831 21.6749 16.243 22.2916C16.6551 22.9083 16.875 23.6333 16.875 24.375C16.875 25.3696 16.4799 26.3234 15.7767 27.0267C15.0734 27.7299 14.1196 28.125 13.125 28.125ZM13.125 22.5C12.7542 22.5 12.3917 22.61 12.0833 22.816C11.775 23.022 11.5346 23.3149 11.3927 23.6575C11.2508 24.0001 11.2137 24.3771 11.286 24.7408C11.3584 25.1045 11.537 25.4386 11.7992 25.7008C12.0614 25.9631 12.3955 26.1416 12.7592 26.214C13.1229 26.2863 13.4999 26.2492 13.8425 26.1073C14.1851 25.9654 14.478 25.725 14.684 25.4167C14.89 25.1084 15 24.7458 15 24.375C15 23.8777 14.8025 23.4008 14.4508 23.0492C14.0992 22.6975 13.6223 22.5 13.125 22.5Z" fill="#101820"/>
<path d="M21.5625 25.3125H15.9375C15.6889 25.3125 15.4504 25.2137 15.2746 25.0379C15.0988 24.8621 15 24.6236 15 24.375C15 24.1264 15.0988 23.8879 15.2746 23.7121C15.4504 23.5363 15.6889 23.4375 15.9375 23.4375H21.5625C21.8111 23.4375 22.0496 23.5363 22.2254 23.7121C22.4012 23.8879 22.5 24.1264 22.5 24.375C22.5 24.6236 22.4012 24.8621 22.2254 25.0379C22.0496 25.2137 21.8111 25.3125 21.5625 25.3125Z" fill="#101820"/>
</svg>
